<svg xmlns="http://www.w3.org/2000/svg" xmlns:xlink="http://www.w3.org/1999/xlink" viewBox="0 0 226.443 112.682"><defs><style>.a{fill:#77838f;font-size:3px;font-family:HelveticaNeue, Helvetica Neue;}.b,.d,.g{fill:none;stroke-width:0.5px;}.b,.g{stroke:#d8d8d8;}.b,.c,.d{opacity:0.8;}.d{stroke:#bbbfc4;}.e{clip-path:url(#a);}.f{fill:url(#b);}.g{stroke-linecap:round;stroke-linejoin:round;}</style><clipPath id="a"><rect width="208.191" height="101.839"/></clipPath><linearGradient id="b" x2="0" y2="1" gradientUnits="objectBoundingBox"><stop offset="0" stop-color="#d8d8d8"/><stop offset="1" stop-color="#bbbfc4" stop-opacity="0"/></linearGradient></defs><g transform="translate(-2.129 6)"><g transform="translate(2.889 41.253)"><text class="a" transform="translate(2.24 5.06) rotate(-90)"><tspan x="-25.726" y="0">Ethereum Cumulative Address Growth</tspan></text></g><g transform="translate(20.381 -3.439)"><path class="b" d="M80,511.5H288.191" transform="translate(-80 -409.421)"/><path class="b" d="M80,440.5H288.191" transform="translate(-80 -355.474)"/><path class="b" d="M80,370.5H288.191" transform="translate(-80 -302.287)"/><path class="b" d="M80,299.5H288.191" transform="translate(-80 -248.34)"/><path class="b" d="M80,228.5H288.191" transform="translate(-80 -194.394)"/><path class="b" d="M80,158.5H288.191" transform="translate(-80 -141.207)"/><path class="b" d="M80,86.5H288.191" transform="translate(-80 -86.5)"/></g><g class="c" transform="translate(20.381 98.52)"><path class="d" d="M146.5,511v2.4" transform="translate(-119.354 -511)"/><path class="d" d="M218.5,511v2.4" transform="translate(-161.962 -511)"/><path class="d" d="M291.5,511v2.4" transform="translate(-205.162 -511)"/><path class="d" d="M363.5,511v2.4" transform="translate(-247.77 -511)"/><path class="d" d="M437.5,511v2.4" transform="translate(-291.562 -511)"/><path class="d" d="M509.5,511v2.4" transform="translate(-334.171 -511)"/><path class="d" d="M582.5,511v2.4" transform="translate(-377.371 -511)"/><path class="d" d="M80,511.5H288.191" transform="translate(-80 -511.38)"/></g><g transform="translate(20.381 -3.319)"><g class="e"><path class="f" d="M5,143.361H6.788l.163,0H34.414l.163,0,.163,0,.163,0h1.625l.163,0,.163,0,.163,0,.163,0,.162,0,.163,0h.163l.163,0h.163l.163,0h.163l.163,0h.163l.163,0h.162l.163,0,.163,0h.163l.163,0,.163,0,.163,0,.163,0,.163,0,.162,0,.163-.005.163-.005.163,0,.163,0,.163,0,.163,0,.163,0,.163,0,.162,0,.163,0,.163,0,.163,0,.163,0,.163,0,.163,0,.163,0,.163,0,.162,0,.163,0,.163,0,.162,0,.162,0,.162,0,.163,0,.162,0,.162,0,.162,0,.162,0,.162,0H45.3l.162,0,.162,0,.162,0,.162,0h.163l.162,0,.162,0,.162,0,.162,0,.162,0,.162,0h.325l.162,0H47.9l.162,0,.162,0,.162,0,.162,0,.162,0,.162,0,.162,0,.162,0,.162,0,.162,0,.163-.01.162,0,.162-.007.162,0,.162,0,.162,0,.162,0,.162,0,.162,0,.162,0,.162,0,.163,0,.162-.005.162,0,.162,0,.162,0,.162,0,.162,0,.162-.009.162-.007.162-.009.162-.008.162,0,.163,0,.162,0,.162-.006.162-.005.162-.022.162-.007.162-.006.162,0,.162,0,.162,0,.162,0,.163,0,.162,0,.162,0,.162,0,.162-.011.162,0,.162,0,.162,0,.162,0,.162-.005.162-.008.163-.007.162-.005.162-.009.162-.024.162-.025.162-.011.162-.01.162-.007.162-.01.162-.007.162-.006.163,0,.162,0,.162,0,.162-.006.162-.005.162,0,.162-.005.162,0,.162-.006.162,0,.162-.007.162-.005.163-.005.162-.005.162-.007.162-.005.162,0,.162-.006.162,0,.162-.005.162-.006.162,0,.162,0,.163,0,.162-.005.162-.008.162-.006.162-.007.162-.006.162-.006.162-.008.162-.009.162-.009.162-.005.163-.006.162,0,.162,0,.162,0,.162-.006.162-.005.162,0,.162,0,.162,0,.162,0,.162,0,.163,0,.162-.005.162,0,.162,0,.162,0,.162,0,.162,0,.162,0,.162,0,.162,0,.162,0,.163,0,.162,0,.162,0,.162,0,.162,0,.162,0,.162,0,.162,0,.162,0,.162,0,.162,0,.162,0,.163,0,.162,0,.162,0,.162,0,.162,0,.162,0,.162,0,.162,0,.162,0,.162,0,.162,0,.163,0,.162,0,.162,0,.162,0,.162,0,.162,0,.162,0,.162,0,.162,0,.162-.005.162,0,.163,0,.162,0,.162,0,.162,0,.162,0,.162,0,.162,0,.162,0,.162,0,.162,0,.162,0,.163-.041.162,0,.162,0,.162,0,.162-.005.162,0,.162-.032.162-.01.162-.014.162-.026.162-.021.163-.006.162-.009.162-.008.162-.008.162,0,.162,0,.162,0,.162,0,.162,0,.162,0,.162-.005.162,0,.163,0,.162,0,.162,0,.162,0,.162,0,.162,0,.162-.009.162,0,.162,0,.162,0,.162,0,.163,0,.162,0,.162,0,.162,0,.162,0,.162,0,.162,0,.162,0,.162,0,.162,0,.162,0,.163,0,.162,0,.162,0,.162,0,.162,0,.162,0,.162,0,.162-.035.162-.005.162,0,.162,0,.163,0,.162,0,.162,0,.162-.006.162-.011.162-.009.162-.012.162,0,.162,0,.162,0,.162,0,.162-.006.163,0,.162,0,.162,0,.162-.006.162-.007.162,0,.162-.005.162,0,.162,0,.162,0,.162,0,.163-.015.162-.007.162,0,.162,0,.162,0,.162,0,.162,0,.162,0,.162,0,.162,0,.162,0,.163,0,.162,0,.162-.006.162-.006.162-.006.162,0,.162,0,.162,0,.162,0,.162,0,.162-.006.163-.006.162-.006.162,0,.162,0,.162,0,.162,0,.162,0,.162-.005.162,0,.162,0,.162,0,.163,0,.162,0,.162-.005.162,0,.162,0,.162,0,.162,0,.162,0,.162,0,.162,0,.162,0,.162,0,.163,0,.162,0,.162,0,.162,0,.162,0,.162,0,.162,0,.162,0,.162,0,.162,0,.162,0,.163,0,.162,0,.162-.005.162,0,.162,0,.162-.005.162,0,.162,0,.162,0,.162,0,.162,0,.163-.006.162-.008.162-.012.162-.011.162-.012.162-.007.162-.007.162-.008.162-.006.162-.007.162-.011.163-.01.162-.01.162-.012.162-.02.162-.017.162-.018.162-.03.162-.027.162-.02.162-.015.162-.016.163-.017.162-.014.162-.014.162-.019.162-.016.162-.012.162-.02.162-.015.162-.015.162-.024.162-.024.162-.013.163-.018.162-.022.162-.017.162-.018.162-.023.162-.014.162-.012.162-.01.162-.012.162-.01.162-.017.163-.014.162-.012.162-.011.162-.008.162-.011.162-.014.162-.015.162-.017.162-.019.162-.013.162-.011.163-.016.162-.014.162-.028.162-.027.162-.021.162-.018.162-.021.162-.027.162-.026.162-.019.162-.031.163-.026.162-.026.162-.032.162-.032.162-.035.162-.034.162-.034.162-.027.162-.024.162-.023.162-.03.162-.035.163-.039.162-.038.162-.049.162-.04.162-.042.162-.056.162-.076.162-.072.162-.066.162-.058.162-.045.163-.044.162-.048.162-.074.162-.077.162-.066.162-.07.162-.06.162-.061.162-.064.162-.073.162-.075.163-.064.162-.069.162-.073.162-.094.162-.1.162-.1.162-.091.162-.089.162-.082.162-.079.162-.09.163-.1.162-.106.162-.055.162-.1.162-.1.162-.086.162-.075.162-.09.162-.071.162-.086.162-.083.163-.081.162-.061.162-.057.162-.093.162-.086.162-.073.162-.06.162-.072.162-.065.162-.051.162-.063.162-.072.163-.07.162-.082.162-.055.162-.047.162-.054.162-.065.162-.085.162-.061.162-.071.162-.065.162-.045.163-.062.162-.065.162-.07.162-.059.162-.051.162-.053.162-.046.162-.073.162-.062.162-.067.162-.065.163-.071.162-.067.162-.064.162-.074.162-.088.162-.093.162-.089.162-.1.162-.1.162-.094.162-.1.163-.134.162-.144.162-.1.162-.114.162-.12.162-.107.162-.1.162-.1.162-.113.162-.119.162-.089.163-.086.162-.077.162-.084.162-.091.162-.106.162-.114.162-.115.162-.113.162-.092.162-.084.162-.107.162-.107.163-.117.162-.11.162-.113.162-.1.162-.086.162-.11.162-.108.162-.094.162-.093.162-.1.162-.085.163-.072.162-.086.162-.094.162-.111.162-.107.162-.061.162-.061.162-.057.162-.069.162-.1.162-.1.163-.092.162-.07.162-.07.162-.057.162-.082.162-.084.162-.078.162-.066.162-.066.162-.061.162-.071.163-.091.162-.077.162-.073.162-.084.162-.089.162-.074.162-.083.162-.1.162-.1.162-.093.162-.117.162-.121.163-.1.162-.1.162-.124.162-.148.162-.125.162-.124.162-.1.162-.071.162-.073.162-.092.162-.126.163-.136.162-.16.162-.118.162-.092.162-.086.162-.108.162-.092.162-.125.162-.18.162-.163.162-.131.163-.147.162-.14.162-.14.162-.178.162-.165.162-.17.162-.127.162-.119.162-.129.162-.148.162-.146.163-.148.162-.149.162-.145.162-.151.162-.171.162-.213.162-.2.162-.185.162-.177.162-.162.162-.177.163-.213.162-.2.162-.332.162-.271.162-.236.162-.208.162-.2.162-.207.162-.254.162-.333.162-.374.162-.333.163-.3.162-.346.162-.371.162-.392.162-.4.162-.441.162-.428.162-.334.162-.245.162-.229.162-.271.163-.329.162-.331.162-.426.162-.478.162-.324.162-.275.162-.429.162-.535.162-.6.162-.585.162-.527.163-.422.162-.459.162-.483.162-.481.162-.5.162-.44.163-.408.162-.355.162-.4.162-.466.162-.454.163-.429.162-.33.162-.3.162-.27.162-.3.162-.284.162-.279.162-.17.162-.284.162-.223.162-.255.163-.245.163-.262.162-.26.162-.268.162-.291.162-.208.162-.224.162-.222.162-.241.162-.2.162-.141.162-.188.163-.22.162-.184.162-.229.162-.181.162-.182.162-.2.162-.167.162-.166.162-.147.162-.168.162-.213.163-.173.162-.155.162-.149.162-.129.162-.127.162-.16.162-.169.162-.165.162-.159.162-.16.162-.145.163-.119.162-.144.162-.143.162-.16.162-.143.162-.149.162-.134.162-.112.162-.124.162-.138.162-.143.163-.137.162-.14.162-.115.162-.145.162-.136.162-.124.162-.129.162-.118.162-.142.162-.106.162-.087.162-.114.163-.105.162-.1.162-.1.162-.112.162-.088.162-.083.162-.091.162-.117.162-.116.162-.155.162-.129.163-.106.162-.122.162-.127.162-.109.162-.1.162-.135.162-.136.162-.1.162-.115.162-.108.162-.134.163-.13.162-.161.162-.174.162-.187.162-.165.162-.153.162-.172.162-.144.162-.13.162-.129.162-.117.163-.116.162-.133.162-.123.162-.134.162-.158.162-.144.162-.14.162-.152.162-.161.162-.164.162-.173.163-.155.162-.161.162-.15.162-.148.162-.144.162-.153.162-.165.162-.18.162-.183.162-.192.162-.144.162-.158.163-.139.162-.166.162-.153.162-.153.162-.121.162-.158.162-.156.162-.159.162-.173.162-.152.162-.143.163-.14.162-.161.162-.15.162-.154.162-.155.162-.165.162-.132.162-.121.162-.122.162-.122.162-.132.163-.156.162-.158.162-.132.162-.11.162-.111.162-.131.162-.113.162-.125.162-.134.162-.137.162-.139.163-.133.162-.138.162-.118.162-.164.162-.136.162-.132.162-.081.162-.051.162-.062.162-.064.162-.064.163-.071.162-.06.162-.056.162-.069.162-.082.162-.093.162-.081.162-.073.162-.073.162-.054.162-.058.162-.122.163-.147.162-.163.162-.144.162-.144.162-.13.162-.128.162-.107.162-.133.162-.151.162-.149.162-.155.163-.151.162-.174.162-.148.162-.162.162-.159.162-.117.162-.123.162-.121.162-.135.162-.125.162-.11.163-.1.162-.087.162-.109.162-.12.162-.111.162-.113.162-.12.162-.1.162-.1.162-.084.162-.079.163-.087.162-.111.162-.1.162-.091.162-.086.162-.088.162-.086.162-.107.162-.079.162-.094.162-.091.162-.089.163-.091.162-.113.162-.133.162-.12.162-.106.162-.1.162-.091.162-.083.162-.068.162-.068.162-.08.163-.085.162-.092.162-.085.162-.094.162-.108.162-.086.162-.122.162-.111.162-.089.162-.109.162-.087.163-.081.162-.073.162-.064.162-.074.162-.07.162-.077.162-.081.162-.084.162-.077.162-.08.162-.084.163-.109.162-.105.162-.119.162-.153.162-.12.162-.108.162-.1.162-.079.162-.091.162-.1.162-.1.163-.133.162-.116.162-.116.162-.108.162-.134.162-.113.162-.2.162-.161.162-.141.162-.136.162-.142.162-.156.163-.144.162-.156.162-.212.162-.153.162-.193.162-.191.162-.151.162-.106.162-.115.162-.126.162-.111.163-.114.162-.115.162-.138.162-.151.162-.2.162-.207.162-.143.162-.168.162-.177.162-.2.162-.19.163-.228.162-.194.162-.161.162-.165.162-.157.162-.167.162-.159.162-.17.162-.185.162-.182.162-.193.163-.172.162-.117.162-.117.162-.176.162-.163.162-.128.162-.114.162-.124.162-.148.162-.177.162-.2.163-.178.162-.146.162-.161.162-.2.162-.164.162-.286.162-.162.162-.306.162-.151.162-.136.162-.191.162-.218.163-.2.162-.257.162-.265L207,56.32l.162-.089.162-.14.162-.152.162-.169.162-.178.162-.109.162-.15.163-.086.162-.1.162-.117.162-.114.162-.118.162-.13v88.709H5" transform="translate(-2.959 -41.537)"/><path class="g" d="M5,143.361H6.788l.163,0H34.414l.163,0,.163,0,.163,0h1.625l.163,0,.163,0,.163,0,.163,0,.162,0,.163,0h.163l.163,0h.163l.163,0h.163l.163,0h.163l.163,0h.162l.163,0,.163,0h.163l.163,0,.163,0,.163,0,.163,0,.163,0,.162,0,.163-.005.163-.005.163,0,.163,0,.163,0,.163,0,.163,0,.163,0,.162,0,.163,0,.163,0,.163,0,.163,0,.163,0,.163,0,.163,0,.163,0,.162,0,.163,0,.163,0,.162,0,.162,0,.162,0,.163,0,.162,0,.162,0,.162,0,.162,0,.162,0H45.3l.162,0,.162,0,.162,0,.162,0h.163l.162,0,.162,0,.162,0,.162,0,.162,0,.162,0h.325l.162,0H47.9l.162,0,.162,0,.162,0,.162,0,.162,0,.162,0,.162,0,.162,0,.162,0,.162,0,.163-.01.162,0,.162-.007.162,0,.162,0,.162,0,.162,0,.162,0,.162,0,.162,0,.162,0,.163,0,.162-.005.162,0,.162,0,.162,0,.162,0,.162,0,.162-.009.162-.007.162-.009.162-.008.162,0,.163,0,.162,0,.162-.006.162-.005.162-.022.162-.007.162-.006.162,0,.162,0,.162,0,.162,0,.163,0,.162,0,.162,0,.162,0,.162-.011.162,0,.162,0,.162,0,.162,0,.162-.005.162-.008.163-.007.162-.005.162-.009.162-.024.162-.025.162-.011.162-.01.162-.007.162-.01.162-.007.162-.006.163,0,.162,0,.162,0,.162-.006.162-.005.162,0,.162-.005.162,0,.162-.006.162,0,.162-.007.162-.005.163-.005.162-.005.162-.007.162-.005.162,0,.162-.006.162,0,.162-.005.162-.006.162,0,.162,0,.163,0,.162-.005.162-.008.162-.006.162-.007.162-.006.162-.006.162-.008.162-.009.162-.009.162-.005.163-.006.162,0,.162,0,.162,0,.162-.006.162-.005.162,0,.162,0,.162,0,.162,0,.162,0,.163,0,.162-.005.162,0,.162,0,.162,0,.162,0,.162,0,.162,0,.162,0,.162,0,.162,0,.163,0,.162,0,.162,0,.162,0,.162,0,.162,0,.162,0,.162,0,.162,0,.162,0,.162,0,.162,0,.163,0,.162,0,.162,0,.162,0,.162,0,.162,0,.162,0,.162,0,.162,0,.162,0,.162,0,.163,0,.162,0,.162,0,.162,0,.162,0,.162,0,.162,0,.162,0,.162,0,.162-.005.162,0,.163,0,.162,0,.162,0,.162,0,.162,0,.162,0,.162,0,.162,0,.162,0,.162,0,.162,0,.163-.041.162,0,.162,0,.162,0,.162-.005.162,0,.162-.032.162-.01.162-.014.162-.026.162-.021.163-.006.162-.009.162-.008.162-.008.162,0,.162,0,.162,0,.162,0,.162,0,.162,0,.162-.005.162,0,.163,0,.162,0,.162,0,.162,0,.162,0,.162,0,.162-.009.162,0,.162,0,.162,0,.162,0,.163,0,.162,0,.162,0,.162,0,.162,0,.162,0,.162,0,.162,0,.162,0,.162,0,.162,0,.163,0,.162,0,.162,0,.162,0,.162,0,.162,0,.162,0,.162-.035.162-.005.162,0,.162,0,.163,0,.162,0,.162,0,.162-.006.162-.011.162-.009.162-.012.162,0,.162,0,.162,0,.162,0,.162-.006.163,0,.162,0,.162,0,.162-.006.162-.007.162,0,.162-.005.162,0,.162,0,.162,0,.162,0,.163-.015.162-.007.162,0,.162,0,.162,0,.162,0,.162,0,.162,0,.162,0,.162,0,.162,0,.163,0,.162,0,.162-.006.162-.006.162-.006.162,0,.162,0,.162,0,.162,0,.162,0,.162-.006.163-.006.162-.006.162,0,.162,0,.162,0,.162,0,.162,0,.162-.005.162,0,.162,0,.162,0,.163,0,.162,0,.162-.005.162,0,.162,0,.162,0,.162,0,.162,0,.162,0,.162,0,.162,0,.162,0,.163,0,.162,0,.162,0,.162,0,.162,0,.162,0,.162,0,.162,0,.162,0,.162,0,.162,0,.163,0,.162,0,.162-.005.162,0,.162,0,.162-.005.162,0,.162,0,.162,0,.162,0,.162,0,.163-.006.162-.008.162-.012.162-.011.162-.012.162-.007.162-.007.162-.008.162-.006.162-.007.162-.011.163-.01.162-.01.162-.012.162-.02.162-.017.162-.018.162-.03.162-.027.162-.02.162-.015.162-.016.163-.017.162-.014.162-.014.162-.019.162-.016.162-.012.162-.02.162-.015.162-.015.162-.024.162-.024.162-.013.163-.018.162-.022.162-.017.162-.018.162-.023.162-.014.162-.012.162-.01.162-.012.162-.01.162-.017.163-.014.162-.012.162-.011.162-.008.162-.011.162-.014.162-.015.162-.017.162-.019.162-.013.162-.011.163-.016.162-.014.162-.028.162-.027.162-.021.162-.018.162-.021.162-.027.162-.026.162-.019.162-.031.163-.026.162-.026.162-.032.162-.032.162-.035.162-.034.162-.034.162-.027.162-.024.162-.023.162-.03.162-.035.163-.039.162-.038.162-.049.162-.04.162-.042.162-.056.162-.076.162-.072.162-.066.162-.058.162-.045.163-.044.162-.048.162-.074.162-.077.162-.066.162-.07.162-.06.162-.061.162-.064.162-.073.162-.075.163-.064.162-.069.162-.073.162-.094.162-.1.162-.1.162-.091.162-.089.162-.082.162-.079.162-.09.163-.1.162-.106.162-.055.162-.1.162-.1.162-.086.162-.075.162-.09.162-.071.162-.086.162-.083.163-.081.162-.061.162-.057.162-.093.162-.086.162-.073.162-.06.162-.072.162-.065.162-.051.162-.063.162-.072.163-.07.162-.082.162-.055.162-.047.162-.054.162-.065.162-.085.162-.061.162-.071.162-.065.162-.045.163-.062.162-.065.162-.07.162-.059.162-.051.162-.053.162-.046.162-.073.162-.062.162-.067.162-.065.163-.071.162-.067.162-.064.162-.074.162-.088.162-.093.162-.089.162-.1.162-.1.162-.094.162-.1.163-.134.162-.144.162-.1.162-.114.162-.12.162-.107.162-.1.162-.1.162-.113.162-.119.162-.089.163-.086.162-.077.162-.084.162-.091.162-.106.162-.114.162-.115.162-.113.162-.092.162-.084.162-.107.162-.107.163-.117.162-.11.162-.113.162-.1.162-.086.162-.11.162-.108.162-.094.162-.093.162-.1.162-.085.163-.072.162-.086.162-.094.162-.111.162-.107.162-.061.162-.061.162-.057.162-.069.162-.1.162-.1.163-.092.162-.07.162-.07.162-.057.162-.082.162-.084.162-.078.162-.066.162-.066.162-.061.162-.071.163-.091.162-.077.162-.073.162-.084.162-.089.162-.074.162-.083.162-.1.162-.1.162-.093.162-.117.162-.121.163-.1.162-.1.162-.124.162-.148.162-.125.162-.124.162-.1.162-.071.162-.073.162-.092.162-.126.163-.136.162-.16.162-.118.162-.092.162-.086.162-.108.162-.092.162-.125.162-.18.162-.163.162-.131.163-.147.162-.14.162-.14.162-.178.162-.165.162-.17.162-.127.162-.119.162-.129.162-.148.162-.146.163-.148.162-.149.162-.145.162-.151.162-.171.162-.213.162-.2.162-.185.162-.177.162-.162.162-.177.163-.213.162-.2.162-.332.162-.271.162-.236.162-.208.162-.2.162-.207.162-.254.162-.333.162-.374.162-.333.163-.3.162-.346.162-.371.162-.392.162-.4.162-.441.162-.428.162-.334.162-.245.162-.229.162-.271.163-.329.162-.331.162-.426.162-.478.162-.324.162-.275.162-.429.162-.535.162-.6.162-.585.162-.527.163-.422.162-.459.162-.483.162-.481.162-.5.162-.44.163-.408.162-.355.162-.4.162-.466.162-.454.163-.429.162-.33.162-.3.162-.27.162-.3.162-.284.162-.279.162-.17.162-.284.162-.223.162-.255.163-.245.163-.262.162-.26.162-.268.162-.291.162-.208.162-.224.162-.222.162-.241.162-.2.162-.141.162-.188.163-.22.162-.184.162-.229.162-.181.162-.182.162-.2.162-.167.162-.166.162-.147.162-.168.162-.213.163-.173.162-.155.162-.149.162-.129.162-.127.162-.16.162-.169.162-.165.162-.159.162-.16.162-.145.163-.119.162-.144.162-.143.162-.16.162-.143.162-.149.162-.134.162-.112.162-.124.162-.138.162-.143.163-.137.162-.14.162-.115.162-.145.162-.136.162-.124.162-.129.162-.118.162-.142.162-.106.162-.087.162-.114.163-.105.162-.1.162-.1.162-.112.162-.088.162-.083.162-.091.162-.117.162-.116.162-.155.162-.129.163-.106.162-.122.162-.127.162-.109.162-.1.162-.135.162-.136.162-.1.162-.115.162-.108.162-.134.163-.13.162-.161.162-.174.162-.187.162-.165.162-.153.162-.172.162-.144.162-.13.162-.129.162-.117.163-.116.162-.133.162-.123.162-.134.162-.158.162-.144.162-.14.162-.152.162-.161.162-.164.162-.173.163-.155.162-.161.162-.15.162-.148.162-.144.162-.153.162-.165.162-.18.162-.183.162-.192.162-.144.162-.158.163-.139.162-.166.162-.153.162-.153.162-.121.162-.158.162-.156.162-.159.162-.173.162-.152.162-.143.163-.14.162-.161.162-.15.162-.154.162-.155.162-.165.162-.132.162-.121.162-.122.162-.122.162-.132.163-.156.162-.158.162-.132.162-.11.162-.111.162-.131.162-.113.162-.125.162-.134.162-.137.162-.139.163-.133.162-.138.162-.118.162-.164.162-.136.162-.132.162-.081.162-.051.162-.062.162-.064.162-.064.163-.071.162-.06.162-.056.162-.069.162-.082.162-.093.162-.081.162-.073.162-.073.162-.054.162-.058.162-.122.163-.147.162-.163.162-.144.162-.144.162-.13.162-.128.162-.107.162-.133.162-.151.162-.149.162-.155.163-.151.162-.174.162-.148.162-.162.162-.159.162-.117.162-.123.162-.121.162-.135.162-.125.162-.11.163-.1.162-.087.162-.109.162-.12.162-.111.162-.113.162-.12.162-.1.162-.1.162-.084.162-.079.163-.087.162-.111.162-.1.162-.091.162-.086.162-.088.162-.086.162-.107.162-.079.162-.094.162-.091.162-.089.163-.091.162-.113.162-.133.162-.12.162-.106.162-.1.162-.091.162-.083.162-.068.162-.068.162-.08.163-.085.162-.092.162-.085.162-.094.162-.108.162-.086.162-.122.162-.111.162-.089.162-.109.162-.087.163-.081.162-.073.162-.064.162-.074.162-.07.162-.077.162-.081.162-.084.162-.077.162-.08.162-.084.163-.109.162-.105.162-.119.162-.153.162-.12.162-.108.162-.1.162-.079.162-.091.162-.1.162-.1.163-.133.162-.116.162-.116.162-.108.162-.134.162-.113.162-.2.162-.161.162-.141.162-.136.162-.142.162-.156.163-.144.162-.156.162-.212.162-.153.162-.193.162-.191.162-.151.162-.106.162-.115.162-.126.162-.111.163-.114.162-.115.162-.138.162-.151.162-.2.162-.207.162-.143.162-.168.162-.177.162-.2.162-.19.163-.228.162-.194.162-.161.162-.165.162-.157.162-.167.162-.159.162-.17.162-.185.162-.182.162-.193.163-.172.162-.117.162-.117.162-.176.162-.163.162-.128.162-.114.162-.124.162-.148.162-.177.162-.2.163-.178.162-.146.162-.161.162-.2.162-.164.162-.286.162-.162.162-.306.162-.151.162-.136.162-.191.162-.218.163-.2.162-.257.162-.265L207,56.32l.162-.089.162-.14.162-.152.162-.169.162-.178.162-.109.162-.15.163-.086.162-.1.162-.117.162-.114.162-.118.162-.13" transform="translate(-2.959 -41.537)"/></g></g><g transform="translate(39.763 101.682)"><text class="a" transform="translate(7 4)"><tspan x="-4.92" y="0">Jan &apos;16</tspan></text><text class="a" transform="translate(36.343 4)"><tspan x="-4.448" y="0">Jul &apos;16</tspan></text><text class="a" transform="translate(64.424 4)"><tspan x="-4.92" y="0">Jan &apos;17</tspan></text><text class="a" transform="translate(95.611 4)"><tspan x="-4.448" y="0">Jul &apos;17</tspan></text><text class="a" transform="translate(126.692 4)"><tspan x="-4.92" y="0">Jan &apos;18</tspan></text><text class="a" transform="translate(156.878 4)"><tspan x="-4.448" y="0">Jul &apos;18</tspan></text><text class="a" transform="translate(188.62 4)"><tspan x="-9.84" y="0">Jan &apos;19</tspan></text></g><g transform="translate(7.803 -5)"><text class="a" transform="translate(10.365 103.839)"><tspan x="-5.115" y="0">0 M</tspan></text><text class="a" transform="translate(10 86.786)"><tspan x="-6.783" y="0">10 M</tspan></text><text class="a" transform="translate(10 69.733)"><tspan x="-6.783" y="0">20 M</tspan></text><text class="a" transform="translate(10 52.92)"><tspan x="-6.783" y="0">30 M</tspan></text><text class="a" transform="translate(10 35.866)"><tspan x="-6.783" y="0">40 M</tspan></text><text class="a" transform="translate(10 18.813)"><tspan x="-6.783" y="0">50 M</tspan></text><text class="a" transform="translate(10 2)"><tspan x="-6.783" y="0">60 M</tspan></text></g></g></svg>