<svg xmlns="http://www.w3.org/2000/svg" xmlns:xlink="http://www.w3.org/1999/xlink" viewBox="0 0 229.112 112.192"><defs><style>.a{fill:#77838f;font-size:3px;font-family:HelveticaNeue, Helvetica Neue;}.b,.d,.g{fill:none;stroke-width:0.5px;}.b{stroke:#d8d8d8;}.b,.c,.d{opacity:0.8;}.d,.g{stroke:#bbbfc4;}.e{clip-path:url(#a);}.f{fill:url(#b);}.g{stroke-linecap:round;stroke-linejoin:round;}</style><clipPath id="a"><rect width="213.538" height="103.042"/></clipPath><linearGradient id="b" x2="0" y2="1" gradientUnits="objectBoundingBox"><stop offset="0" stop-color="#d8d8d8"/><stop offset="1" stop-color="#bbbfc4" stop-opacity="0"/></linearGradient></defs><g transform="translate(171.031 12039.455)"><g transform="translate(-178.031 -12002.225)"><text class="a" transform="translate(10 16.619) rotate(-90)"><tspan x="-17.529" y="0">New Ether Supply per day</tspan></text></g><g transform="translate(-155.472 -12036.857)"><path class="b" d="M77,510.5H290.538" transform="translate(-77 -407.215)"/><path class="b" d="M77,463.5H290.538" transform="translate(-77 -371.637)"/><path class="b" d="M77,416.5H290.538" transform="translate(-77 -336.059)"/><path class="b" d="M77,369.5H290.538" transform="translate(-77 -300.482)"/><path class="b" d="M77,322.5H290.538" transform="translate(-77 -264.904)"/><path class="b" d="M77,274.5H290.538" transform="translate(-77 -228.569)"/><path class="b" d="M77,227.5H290.538" transform="translate(-77 -192.991)"/><path class="b" d="M77,180.5H290.538" transform="translate(-77 -157.413)"/><path class="b" d="M77,133.5H290.538" transform="translate(-77 -121.835)"/><path class="b" d="M77,85.5H290.538" transform="translate(-77 -85.5)"/></g><g class="c" transform="translate(-155.472 -11933.693)"><path class="d" d="M143.5,510v2.43" transform="translate(-115.819 -510)"/><path class="d" d="M216.5,510v2.43" transform="translate(-158.433 -510)"/><path class="d" d="M289.5,510v2.43" transform="translate(-201.046 -510)"/><path class="d" d="M362.5,510v2.43" transform="translate(-243.66 -510)"/><path class="d" d="M436.5,510v2.43" transform="translate(-286.857 -510)"/><path class="d" d="M508.5,510v2.43" transform="translate(-328.887 -510)"/><path class="d" d="M582.5,510v2.43" transform="translate(-372.084 -510)"/><path class="d" d="M77,510.5H290.538" transform="translate(-77 -510.378)"/></g><g transform="translate(-155.472 -12036.734)"><g class="e"><path class="f" d="M5.029,53.555,5.2,60.709,5.363,80.14l.167-1.185.167.565.167-1.149.167,2.175L6.2,81.584l.167-.829L6.528,79.6l.167,1.752.167-1.463.167-.482.167,1.5.167-2.055.167-6.5.167,5.94.167.9.167,2.346.167,2.133.167-2.563.167,14.254.167-12.9L8.86,80.5l.167,2.965.167-2.468.167,1.368.167,1.369.167,3.675.167.7L10.026,92l.167,2.453.167.367L10.525,97l.167,4.478.167,2.3.167-13.054.167-5.833.167-1.235.167,1.621.167-.989.167-1.225.167-.038.167-1.822.167,1.921.167.526.167,1.336.167-.062.167-1.609.167,2.021.167-1.067.167-2.926.167-1.839.167,3.047.167.645.167-1.626.167,1.59.167-1.414.167,2.5.167,2.059.167.68.167.792.167-1.661.167-5.331.167,1.165.167,1.052.167,2.229.167-1.5.167,2.519.167-2.512.167-1.485.167,3.056.167-.119.167-2.315.167-.662.167.3.167,1.815.167.607.167.387.167-2.311.167,1.379.167-.271.167-.517.167,1.973.167-1.639.167-3.463.167,1.016.167.689.167,2.058.167-3.689.167,2.7.167-2.653.167-.5.167-.055.167-.99.167,2.395.167-1.08.167-.253.167.973.167-.3.167,1.619.167-1.314.167.526.167-.88.167-.876.167-.453.167-.368.167-.395.167.544.167,1.66.167-.912.167,1.24.167,1.577.167,3.281.167-3.782.167-.473.167-.65.167.971.167.862.167-.152.167-3.088.167,1.554.167-.32.167-.019.167-.427.167-1.192.167,4.708.167-1.54.167.223.167.747.167-1.06.167.931.167-4.606.167,1.939.167,1.041.167-.421.167-1.6.167,2.745.167-.7L28.18,83l.167-.975.167.485.167-.053.167.592.167-.05.167-2.1.167-.057.167,1.632.167-.268.167.557.167-.672.167-.468.167.909.167-.172.167-.4.167,1.936.167-3.016.167-.668.167.584.167-.958.167.489.167,1.381.167-2.231.167.918.167.7.167.647.167,2.529.167-1.453.167-.879.167.279.167.628.167-.176.167-.046.167,1.208.167-1.03.167,1.427.167-.769.167,1.111.167-3.373.167,3.54.167-2.959.167,2.034.167-1.062.167.925.167-.075.167,1.171.167-1.716.167,1.289.167-3.274.167,1.685.167.009.167.487.167-.776.167.068.167.421.167.71.167-.725.167-.924.167.869.167.4.167.237.167-.5.167,1.772.167-1.243.167-1.009.167.217.167.056.167-.507.167,1.346.167-.588L40,82.16l.167.388.167,1.04.167-.509.167,2.731.167-2.866L41,82.571l.167,1.22.167.517.167-1.6.167,2.708.167-1.341.167.372.167.183.167-2.025.167.744.167-.155.167-2.016L43,83.112l.167-11.027.167-.61.167-1.224.167,1.688.167-1.812L44,71.234l.167.486.167-.753.167.957.167-1.779.167.415.167-.1.167.7.167.742.167-.3.167-.6.167.714L46,70.571l.167,1.84.167-1.485.166-.512.167.866.167.715.167.218.167-1.71.166,2.291.167-1.988.167,1.866.167-.953L48,71.484l.167.195.167-.761.167.463.167.064.167-.816L49,71.85l.167-1.156.167,1.048.167-.464.167-.268.167.455L50,69.994l.167,1.944.166-1.344.167.441.167,0,.166-.477L51,72.568l.167-2.058.167.276.167.761.167-.736.167.1.166.377.167-.632.166.109.167.23.167,1.025.167-2.3.167.138.167,1.211.167-.322.166.68.167-1.559.167-.486.166,1.147.167-.426.167.573.167-.954.167.4.167.177.167-.81.167.716.166-.628.167-.007.167.8.167-.072.166,1.079.167-1.4.167-.087.167-.206.167.3.167,1.279.166-1.806.167.975.167-.818.167.176.166,2.431.167-2.774.167.363.167-.017.167.18.166.638.167-.024.167-3.524.167-2.223.166,2.729.167,3.39.167-.627.167-1.562.167,1.142.167.741.167.371.167-1.44.166.5.167-.152.166.667.167-.266.167-1.448.167,1.607.167-.282.167-.232.167,1.289.167-1.779.167,1.051.166-.123.167-1.943.167,1.907.166-.045.167.513.167-.91.167.8.167-.169.167-.654.166.9.167-1.651.166,1.658.167-.323.167-1.99.167,2.5L64.82,69.4l.167,2.1.166-1.18.166,2.78.167-4.947.167,1.336.167.95.167.682.167-1.323.166,1.432.167.548.166-.807.166-2.622.167,1.422.166,1.47.167-1.606.167.264.167.03.166-1.153.167,1.057.167.233.167.239.166.069.166-.824.167.668.167.1.167-1.819.167,2.17.166-.9.166-1.046.167.915.167.249.167-.205.166.316.167.605.167-1,.166.637.167.233.166.118L71.315,70l.166.893.167-1.464.166,2.034.167-.843.167-.746.167,1.164.166-1.343.167.823.167-.706.166.885.167-1.2.166.266.167.76.167-1.428.167.792.166-.129.167.192.166,5.91.167-10.769.167,4.086.166.936.167,1.095.167-6.124.166,2.187.167-2.44.167,5.174.167-7.221.167,6.8.166-.206.166,1.786.167-6.538.167-2.936.166,5.693.167,2.8.166-2.359.167.549.167-8.5.166,1.047.167,6.112.167.675.166,1.492.167-1.4.167-3.97.166,4.379.167,1.618.166-1.656.167,1.265.167-2.158.167.391.166-3.158.166,5.5.167.972.167.849.167-1.672.166.91.166-.67.167,1.172.167.838.166,3.319.167-5.338.166-.139.167,3.487.167-1.474.167-.169.166.67.167-1.147.167-.86.166-3.341.167,2.134.167,3.034.167-.477.166-.295.166-1.4.167-1.086.167,2.26.167-1.024.166.693.167,1.77.166-5.249.167,1.762.167-.3.166,1.485.167,1.452.167-3.316.166.522.167-2.375.166,2.15.166-2.782.167-.524.166,2.218.167,2.59.166.21.167-.11.166-.733.167,2.161.167-.142.167-1.7.167.607.166-.878.167.993.167-.036.167-.242.167,1.013.167-1.078.166-.093.167,1.105.167-.89.166-.471.167.16.166.966.167-.454.167.174.166,1.188.166-.1.167-.48.166-1.561.167.833.166.957.166-.79.167-.566.167.314.166,1.038.167-1.191.167.5.167.017.167-1.32.166.647.167,1.048.167-1.226.167.482.166-.151.167.918.167-.4.166-.077.167-.4.166.577.167-.513.167.37.166.559.166-.714L94.8,70.03l.167,2.29.166-.922.166-.124.167.182.167.178.167-.007.166-.827.166,1.534.167-.946.166.9.166-1.791L96.8,71.65l.167.187.167-.189.167.324.167-1.116.166.365.166-.051.167.3.166-.5.167.643.166-.158.167-.214.166.046.167-.376.167.6.166-.574.166.416.166.485.167.266.167-.127.167-.276.166-.067.167.984.166-.555.166-.078.167-.665.166-.61.167,1.314.166-1.4.167,1.628.167-1.113.167.76.166.289.167-.891.166.936.167.193.167-.589.166,1.183.167-.5.166-.477.167.884.166-1.75.167.914.166-.373.166-.115.167-.948.166.823.167,1.117.167-1.548.166,1.5.166-.815.167.9.166.321.167-.508.167-.258.166.4.167,1.023.167-1.632.166,1.027.167-.889.166.818.166.939.167-1.707.166.3.167-.412.167,1.17.166-.8.166.364.167,1.542.166.469.166-.946.167.534.166-.281.167-1.488.167,2.271.167-1.166.166-.322.166.3.167,2.071.166-1.855.167-.126.166,1.115.167-1.147.166,1.616.167-2.227.167,3.265.166,0,.166-.806.167,1.063.167-.346.166.025.167-.181.166-.266.167.289.166-.624.167-.01.166-.4.167,1.04.166-.753.166.321.167-.274.167-.355.166,1.457.167,2.372.166-.561.166-.585.167,1.875.166-1.332.166.228.167-.62.166,0,.167-.264.166.442.167-.157.166-.437.166-.3.167.448.166-.118.167-1.635.167-.646.167,2.452.166,1.555.167,2.859.166-1.625.167.69.167-1.291.166.713.167-.663.166.319.167-.043.167-1.165.166.531.166-.4.167-.4.166.017.167.16.167-.394.166.165.166-.661.167-.1.166,4.4.167,1.279.167-.876.166.986.166-.9.167.256.167-.723.167.267.167-.138.166-.839.166.349.167.4.167-.067.166-.959.167-.537.166,1.386.167-.381.166-.828.167.507.167.288.167,5.741.166,1.066.166.069.167.381h.167l.167-.873.166.327.166,1.125.166-.989.166-1.221.167-.021.167,1.49.167-1.065.166-.4.167.972.166-1.451.167.407.167.372.167-.761.166.441.167-.515.167,1.509.167,6.041.166.653.167.387.166-.775.166.268.167-.178.166-.815.167-.032.166-.215.167.608.166-1,.167-.043.167-.261.167-.008.167-.427.167-.782.167.075.167.51.167-.582.166.989.167-1.4.167.511.167-.2.167.179.166,8.5.167.584.167-.16.167.481.167-1.5.167.312.167.407.167-.145.166-.043.167.472.167-.639.167-.412.166.488.167-.559.167-.308.166.53.167.108.166.327.166-1.068.167.949.167-.9.166-.565.167.454.166.266.167.359.167-.705.166.437.167-.354.167,8.227.167,1.689.167-1.043.166,1.344.166-.761.167-.468.166.946.167.333.167-.181.167-.461.166.1.167-.2.167-.321.166-.363.167,1.037.166.02.167-.422.166-.021.167-.631.167-.035.167.248.166-.1.167.273.166-.6.167-1.35.167-9.108.167-.527.166-.112.167-.112.166.76.167-.552.167-.2.167-.135.167.713.166.046.167-.625.167.059.167.358.166.436.167-1.232.167.934.167-.157.167-.029.166.277.167-.925.167.806.167-.4.167.368.167-.138.167-.489.166.248.167.475.166-.482.167.85.167-1.016.166.621.167-.324.167.073.167-.208.166.033.167.033.166-.253.167.359.167-.15.167.225.166-.1.167.2.167-.087.167-.264.167.02.167-.139.167.622.166-.3.167-.21.167-.478.167-.01.167-.607.166,1.083.167-.3.167.393.167.144.166-.559.167-.075.167-.41.166-.1.167,1.02.167.09.167-.5.166-.151.167,0,.167.5.167-.358.167-.6.167.758.166.131.167.145.167-.342.167.227.167-.071.167-.179.166.2.167-.375.167.138.167-.087.167-.84.166.117.166-.083.167-.519.167,1.315.167-.3.167-.793.166.112.166.27.167.531.167-.785.167,1.412.167-1.1.166.11.167.65.166-.167.167-.3.166,1.114.166-.669.167.185.167-.2.167.54.167-.141.166-.046.167-.325.166.015.167.576.167-.534.167-.009.167-.228.166.739.166.008.167-.729.167.577.167-.119.166.113.167.257.167-.952.167,1.29.167-.828.167.1.166.9.167-1.273.167.541.167-.409.167.47.167-.18.167.04.166-.607.167.621.167-.607.167.424.167.609.167-.275.167-.177.166-.358.167.417.167-.659.166.548.167.494.167-.227.166-.286.167-.4.166.725.166-.169.167-.21.167-.141.166.383.167-.048.167-.069.167-.19.166-.089.167.274.167.185.167.053.166-.23.167.258.166-.426.167.578.167-.671.167.446.166-.235.167.372.167-.19.166-.108.167-.213.166.069.167.6.167-.6.166.173.167.206.167-.686.167.381.166.412.167-.246.167.151.167-.551.167.684.166.086.167-.995.167.56.167-.019.166-.432.167.462.166.3.167-.943.166.721.167-.438.167.2.167-.052.167.238.167-.492.166-.488.167.986.167.233.166-1.06.167.419.167.221.167-.958.166.592.167.042.166-.281.167.208.166-.221.166.784.167-.34.166.141.167-.448.167.115.166.38.167.121.167-.4.167.3.166-.5.167-.093.166-.037.167.118.167-.117.166.415.166-.828.167,1.229.166-.675.167-.145.166.659.167-.572.167.053.166-.069.166-.148.167.417.166-.339.167.511.167-.731L178.406,97l.167-.656.167-.4.167.251.167-.285.167.819.167-.81.167.5.167.145.167.088.167-.087.167-.1.166.35.167-.448.167.32.167-.25.167.3.166-.436.167,0,.167.664.167-.4.167-.24.167.117.167.452.167.05.167-.621.167.482.166-.531.166.388.167.046.167.117.167,0,.167-.227.167.239.166-.538.166.667.167-.723.167.376.167.5.167-.367.166-.359.167.53.167-.824.166.938.167-.232.166.563.167-.882.167-.459.167.757.167-.277.166-.488.166.81.167-.215.167.166.167-.12.167.179.166-.413.167.385.166-.283.167.078.167-.2.166.167.167.273.167.028.167-.368.167.074.167.188.166-.44.167.651.166-.111.167.158.167-.036.167-.184.167-.177.166.082.167.031.166.022.167-.108.167.439.167-.1.166-.894.167.712.167.006.167-.291.166.376.167.26.167-.511.167.154.166.092.167-.267.167.407.167-.5.167.5.167-.549.166.8.167-.148.167.042.166-.389.167.439.167-.362.167-.045.167-.021.167-.011.166-.165.167.066.167.694.167-.85.167.285.166-.676.167.911.166-.007.167-.035.167-.184.167-.419.166.209.167.222.167.4.167-.621.167.478.167-.485.166.5.167-.17.166.441.167-.721.166-.067.167.216.167.174.167-.025.166-.288.167.242.167-.127.166-.064.167.347.167-.155.166-.042.167-.088.167.33.166-.358.167.214.167.247.166-.749.167.442.167.312.166-.585.167.594.167-.152.166-.2.167.515.167-.765.166.609.167.228.167-.093.167-.235.167-.254.167.326.166-.526.167.564.167-.023.166-.4.167.251.167-.01.166.1.167.346.167.247.166-.6.167.582.167-.432.166.677.167-.234.167-.49.166.678.167-.43.167.264.167-.029.166-.065.167.682.166-.33.167-.473.167.408.166.363.167.3.167.067.167-.136.166-.105.167-.083.167.576.166-.112.167-.086.167-1.037.167,1.541.167-.57.167-.362.167-.113.166.918.167-.26.167,1.049.166.463.167.16.167-.024.167-.053.166-.478.167.387.166-.4.167-.079.166-.378.167.707.167-.1.167-.4.167.705.167-.356.166.657.167-.925.167,2.717.166.232.167-.442.167.5.167-.542v41.312H5.029" transform="translate(-2.936 -40.54)"/><path class="g" d="M5.029,53.555,5.2,60.709,5.363,80.14l.167-1.185.167.565.167-1.149.167,2.175L6.2,81.584l.167-.829L6.528,79.6l.167,1.752.167-1.463.167-.482.167,1.5.167-2.055.167-6.5.167,5.94.167.9.167,2.346.167,2.133.167-2.563.167,14.254.167-12.9L8.86,80.5l.167,2.965.167-2.468.167,1.368.167,1.369.167,3.675.167.7L10.026,92l.167,2.453.167.367L10.525,97l.167,4.478.167,2.3.167-13.054.167-5.833.167-1.235.167,1.621.167-.989.167-1.225.167-.038.167-1.822.167,1.921.167.526.167,1.336.167-.062.167-1.609.167,2.021.167-1.067.167-2.926.167-1.839.167,3.047.167.645.167-1.626.167,1.59.167-1.414.167,2.5.167,2.059.167.68.167.792.167-1.661.167-5.331.167,1.165.167,1.052.167,2.229.167-1.5.167,2.519.167-2.512.167-1.485.167,3.056.167-.119.167-2.315.167-.662.167.3.167,1.815.167.607.167.387.167-2.311.167,1.379.167-.271.167-.517.167,1.973.167-1.639.167-3.463.167,1.016.167.689.167,2.058.167-3.689.167,2.7.167-2.653.167-.5.167-.055.167-.99.167,2.395.167-1.08.167-.253.167.973.167-.3.167,1.619.167-1.314.167.526.167-.88.167-.876.167-.453.167-.368.167-.395.167.544.167,1.66.167-.912.167,1.24.167,1.577.167,3.281.167-3.782.167-.473.167-.65.167.971.167.862.167-.152.167-3.088.167,1.554.167-.32.167-.019.167-.427.167-1.192.167,4.708.167-1.54.167.223.167.747.167-1.06.167.931.167-4.606.167,1.939.167,1.041.167-.421.167-1.6.167,2.745.167-.7L28.18,83l.167-.975.167.485.167-.053.167.592.167-.05.167-2.1.167-.057.167,1.632.167-.268.167.557.167-.672.167-.468.167.909.167-.172.167-.4.167,1.936.167-3.016.167-.668.167.584.167-.958.167.489.167,1.381.167-2.231.167.918.167.7.167.647.167,2.529.167-1.453.167-.879.167.279.167.628.167-.176.167-.046.167,1.208.167-1.03.167,1.427.167-.769.167,1.111.167-3.373.167,3.54.167-2.959.167,2.034.167-1.062.167.925.167-.075.167,1.171.167-1.716.167,1.289.167-3.274.167,1.685.167.009.167.487.167-.776.167.068.167.421.167.71.167-.725.167-.924.167.869.167.4.167.237.167-.5.167,1.772.167-1.243.167-1.009.167.217.167.056.167-.507.167,1.346.167-.588L40,82.16l.167.388.167,1.04.167-.509.167,2.731.167-2.866L41,82.571l.167,1.22.167.517.167-1.6.167,2.708.167-1.341.167.372.167.183.167-2.025.167.744.167-.155.167-2.016L43,83.112l.167-11.027.167-.61.167-1.224.167,1.688.167-1.812L44,71.234l.167.486.167-.753.167.957.167-1.779.167.415.167-.1.167.7.167.742.167-.3.167-.6.167.714L46,70.571l.167,1.84.167-1.485.166-.512.167.866.167.715.167.218.167-1.71.166,2.291.167-1.988.167,1.866.167-.953L48,71.484l.167.195.167-.761.167.463.167.064.167-.816L49,71.85l.167-1.156.167,1.048.167-.464.167-.268.167.455L50,69.994l.167,1.944.166-1.344.167.441.167,0,.166-.477L51,72.568l.167-2.058.167.276.167.761.167-.736.167.1.166.377.167-.632.166.109.167.23.167,1.025.167-2.3.167.138.167,1.211.167-.322.166.68.167-1.559.167-.486.166,1.147.167-.426.167.573.167-.954.167.4.167.177.167-.81.167.716.166-.628.167-.007.167.8.167-.072.166,1.079.167-1.4.167-.087.167-.206.167.3.167,1.279.166-1.806.167.975.167-.818.167.176.166,2.431.167-2.774.167.363.167-.017.167.18.166.638.167-.024.167-3.524.167-2.223.166,2.729.167,3.39.167-.627.167-1.562.167,1.142.167.741.167.371.167-1.44.166.5.167-.152.166.667.167-.266.167-1.448.167,1.607.167-.282.167-.232.167,1.289.167-1.779.167,1.051.166-.123.167-1.943.167,1.907.166-.045.167.513.167-.91.167.8.167-.169.167-.654.166.9.167-1.651.166,1.658.167-.323.167-1.99.167,2.5L64.82,69.4l.167,2.1.166-1.18.166,2.78.167-4.947.167,1.336.167.95.167.682.167-1.323.166,1.432.167.548.166-.807.166-2.622.167,1.422.166,1.47.167-1.606.167.264.167.03.166-1.153.167,1.057.167.233.167.239.166.069.166-.824.167.668.167.1.167-1.819.167,2.17.166-.9.166-1.046.167.915.167.249.167-.205.166.316.167.605.167-1,.166.637.167.233.166.118L71.315,70l.166.893.167-1.464.166,2.034.167-.843.167-.746.167,1.164.166-1.343.167.823.167-.706.166.885.167-1.2.166.266.167.76.167-1.428.167.792.166-.129.167.192.166,5.91.167-10.769.167,4.086.166.936.167,1.095.167-6.124.166,2.187.167-2.44.167,5.174.167-7.221.167,6.8.166-.206.166,1.786.167-6.538.167-2.936.166,5.693.167,2.8.166-2.359.167.549.167-8.5.166,1.047.167,6.112.167.675.166,1.492.167-1.4.167-3.97.166,4.379.167,1.618.166-1.656.167,1.265.167-2.158.167.391.166-3.158.166,5.5.167.972.167.849.167-1.672.166.91.166-.67.167,1.172.167.838.166,3.319.167-5.338.166-.139.167,3.487.167-1.474.167-.169.166.67.167-1.147.167-.86.166-3.341.167,2.134.167,3.034.167-.477.166-.295.166-1.4.167-1.086.167,2.26.167-1.024.166.693.167,1.77.166-5.249.167,1.762.167-.3.166,1.485.167,1.452.167-3.316.166.522.167-2.375.166,2.15.166-2.782.167-.524.166,2.218.167,2.59.166.21.167-.11.166-.733.167,2.161.167-.142.167-1.7.167.607.166-.878.167.993.167-.036.167-.242.167,1.013.167-1.078.166-.093.167,1.105.167-.89.166-.471.167.16.166.966.167-.454.167.174.166,1.188.166-.1.167-.48.166-1.561.167.833.166.957.166-.79.167-.566.167.314.166,1.038.167-1.191.167.5.167.017.167-1.32.166.647.167,1.048.167-1.226.167.482.166-.151.167.918.167-.4.166-.077.167-.4.166.577.167-.513.167.37.166.559.166-.714L94.8,70.03l.167,2.29.166-.922.166-.124.167.182.167.178.167-.007.166-.827.166,1.534.167-.946.166.9.166-1.791L96.8,71.65l.167.187.167-.189.167.324.167-1.116.166.365.166-.051.167.3.166-.5.167.643.166-.158.167-.214.166.046.167-.376.167.6.166-.574.166.416.166.485.167.266.167-.127.167-.276.166-.067.167.984.166-.555.166-.078.167-.665.166-.61.167,1.314.166-1.4.167,1.628.167-1.113.167.76.166.289.167-.891.166.936.167.193.167-.589.166,1.183.167-.5.166-.477.167.884.166-1.75.167.914.166-.373.166-.115.167-.948.166.823.167,1.117.167-1.548.166,1.5.166-.815.167.9.166.321.167-.508.167-.258.166.4.167,1.023.167-1.632.166,1.027.167-.889.166.818.166.939.167-1.707.166.3.167-.412.167,1.17.166-.8.166.364.167,1.542.166.469.166-.946.167.534.166-.281.167-1.488.167,2.271.167-1.166.166-.322.166.3.167,2.071.166-1.855.167-.126.166,1.115.167-1.147.166,1.616.167-2.227.167,3.265.166,0,.166-.806.167,1.063.167-.346.166.025.167-.181.166-.266.167.289.166-.624.167-.01.166-.4.167,1.04.166-.753.166.321.167-.274.167-.355.166,1.457.167,2.372.166-.561.166-.585.167,1.875.166-1.332.166.228.167-.62.166,0,.167-.264.166.442.167-.157.166-.437.166-.3.167.448.166-.118.167-1.635.167-.646.167,2.452.166,1.555.167,2.859.166-1.625.167.69.167-1.291.166.713.167-.663.166.319.167-.043.167-1.165.166.531.166-.4.167-.4.166.017.167.16.167-.394.166.165.166-.661.167-.1.166,4.4.167,1.279.167-.876.166.986.166-.9.167.256.167-.723.167.267.167-.138.166-.839.166.349.167.4.167-.067.166-.959.167-.537.166,1.386.167-.381.166-.828.167.507.167.288.167,5.741.166,1.066.166.069.167.381h.167l.167-.873.166.327.166,1.125.166-.989.166-1.221.167-.021.167,1.49.167-1.065.166-.4.167.972.166-1.451.167.407.167.372.167-.761.166.441.167-.515.167,1.509.167,6.041.166.653.167.387.166-.775.166.268.167-.178.166-.815.167-.032.166-.215.167.608.166-1,.167-.043.167-.261.167-.008.167-.427.167-.782.167.075.167.51.167-.582.166.989.167-1.4.167.511.167-.2.167.179.166,8.5.167.584.167-.16.167.481.167-1.5.167.312.167.407.167-.145.166-.043.167.472.167-.639.167-.412.166.488.167-.559.167-.308.166.53.167.108.166.327.166-1.068.167.949.167-.9.166-.565.167.454.166.266.167.359.167-.705.166.437.167-.354.167,8.227.167,1.689.167-1.043.166,1.344.166-.761.167-.468.166.946.167.333.167-.181.167-.461.166.1.167-.2.167-.321.166-.363.167,1.037.166.02.167-.422.166-.021.167-.631.167-.035.167.248.166-.1.167.273.166-.6.167-1.35.167-9.108.167-.527.166-.112.167-.112.166.76.167-.552.167-.2.167-.135.167.713.166.046.167-.625.167.059.167.358.166.436.167-1.232.167.934.167-.157.167-.029.166.277.167-.925.167.806.167-.4.167.368.167-.138.167-.489.166.248.167.475.166-.482.167.85.167-1.016.166.621.167-.324.167.073.167-.208.166.033.167.033.166-.253.167.359.167-.15.167.225.166-.1.167.2.167-.087.167-.264.167.02.167-.139.167.622.166-.3.167-.21.167-.478.167-.01.167-.607.166,1.083.167-.3.167.393.167.144.166-.559.167-.075.167-.41.166-.1.167,1.02.167.09.167-.5.166-.151.167,0,.167.5.167-.358.167-.6.167.758.166.131.167.145.167-.342.167.227.167-.071.167-.179.166.2.167-.375.167.138.167-.087.167-.84.166.117.166-.083.167-.519.167,1.315.167-.3.167-.793.166.112.166.27.167.531.167-.785.167,1.412.167-1.1.166.11.167.65.166-.167.167-.3.166,1.114.166-.669.167.185.167-.2.167.54.167-.141.166-.046.167-.325.166.015.167.576.167-.534.167-.009.167-.228.166.739.166.008.167-.729.167.577.167-.119.166.113.167.257.167-.952.167,1.29.167-.828.167.1.166.9.167-1.273.167.541.167-.409.167.47.167-.18.167.04.166-.607.167.621.167-.607.167.424.167.609.167-.275.167-.177.166-.358.167.417.167-.659.166.548.167.494.167-.227.166-.286.167-.4.166.725.166-.169.167-.21.167-.141.166.383.167-.048.167-.069.167-.19.166-.089.167.274.167.185.167.053.166-.23.167.258.166-.426.167.578.167-.671.167.446.166-.235.167.372.167-.19.166-.108.167-.213.166.069.167.6.167-.6.166.173.167.206.167-.686.167.381.166.412.167-.246.167.151.167-.551.167.684.166.086.167-.995.167.56.167-.019.166-.432.167.462.166.3.167-.943.166.721.167-.438.167.2.167-.052.167.238.167-.492.166-.488.167.986.167.233.166-1.06.167.419.167.221.167-.958.166.592.167.042.166-.281.167.208.166-.221.166.784.167-.34.166.141.167-.448.167.115.166.38.167.121.167-.4.167.3.166-.5.167-.093.166-.037.167.118.167-.117.166.415.166-.828.167,1.229.166-.675.167-.145.166.659.167-.572.167.053.166-.069.166-.148.167.417.166-.339.167.511.167-.731L178.406,97l.167-.656.167-.4.167.251.167-.285.167.819.167-.81.167.5.167.145.167.088.167-.087.167-.1.166.35.167-.448.167.32.167-.25.167.3.166-.436.167,0,.167.664.167-.4.167-.24.167.117.167.452.167.05.167-.621.167.482.166-.531.166.388.167.046.167.117.167,0,.167-.227.167.239.166-.538.166.667.167-.723.167.376.167.5.167-.367.166-.359.167.53.167-.824.166.938.167-.232.166.563.167-.882.167-.459.167.757.167-.277.166-.488.166.81.167-.215.167.166.167-.12.167.179.166-.413.167.385.166-.283.167.078.167-.2.166.167.167.273.167.028.167-.368.167.074.167.188.166-.44.167.651.166-.111.167.158.167-.036.167-.184.167-.177.166.082.167.031.166.022.167-.108.167.439.167-.1.166-.894.167.712.167.006.167-.291.166.376.167.26.167-.511.167.154.166.092.167-.267.167.407.167-.5.167.5.167-.549.166.8.167-.148.167.042.166-.389.167.439.167-.362.167-.045.167-.021.167-.011.166-.165.167.066.167.694.167-.85.167.285.166-.676.167.911.166-.007.167-.035.167-.184.167-.419.166.209.167.222.167.4.167-.621.167.478.167-.485.166.5.167-.17.166.441.167-.721.166-.067.167.216.167.174.167-.025.166-.288.167.242.167-.127.166-.064.167.347.167-.155.166-.042.167-.088.167.33.166-.358.167.214.167.247.166-.749.167.442.167.312.166-.585.167.594.167-.152.166-.2.167.515.167-.765.166.609.167.228.167-.093.167-.235.167-.254.167.326.166-.526.167.564.167-.023.166-.4.167.251.167-.01.166.1.167.346.167.247.166-.6.167.582.167-.432.166.677.167-.234.167-.49.166.678.167-.43.167.264.167-.029.166-.065.167.682.166-.33.167-.473.167.408.166.363.167.3.167.067.167-.136.166-.105.167-.083.167.576.166-.112.167-.086.167-1.037.167,1.541.167-.57.167-.362.167-.113.166.918.167-.26.167,1.049.166.463.167.16.167-.024.167-.053.166-.478.167.387.166-.4.167-.079.166-.378.167.707.167-.1.167-.4.167.705.167-.356.166.657.167-.925.167,2.717.166.232.167-.442.167.5.167-.542" transform="translate(-2.936 -40.54)"/></g></g><g class="c" transform="translate(-131.056 -11929.263)"><text class="a" transform="translate(2 1)"><tspan x="-4.92" y="0">Jan &apos;16</tspan></text><text class="a" transform="translate(32.144 1)"><tspan x="-4.448" y="0">Jul &apos;16</tspan></text><text class="a" transform="translate(62.957 1)"><tspan x="-4.92" y="0">Jan &apos;17</tspan></text><text class="a" transform="translate(92.934 1)"><tspan x="-4.448" y="0">Jul &apos;17</tspan></text><text class="a" transform="translate(123.747 1)"><tspan x="-4.92" y="0">Jan &apos;18</tspan></text><text class="a" transform="translate(154.724 1)"><tspan x="-4.448" y="0">Jul &apos;18</tspan></text><text class="a" transform="translate(189.137 1)"><tspan x="-9.84" y="0">Jan &apos;19</tspan></text></g><g transform="translate(-160.457 -12038.455)"><text class="a" transform="translate(2.498 105.258)"><tspan x="-4.059" y="0">0 k</tspan></text><text class="a" transform="translate(2.498 93.455)"><tspan x="-4.059" y="0">5 k</tspan></text><text class="a" transform="translate(2 81.898)"><tspan x="-5.727" y="0">10 k</tspan></text><text class="a" transform="translate(2 70.341)"><tspan x="-5.727" y="0">15 k</tspan></text><text class="a" transform="translate(2 59.784)"><tspan x="-5.727" y="0">20 k</tspan></text><text class="a" transform="translate(2 48.227)"><tspan x="-5.727" y="0">25 k</tspan></text><text class="a" transform="translate(2 36.671)"><tspan x="-5.727" y="0">30 k</tspan></text><text class="a" transform="translate(2 25.114)"><tspan x="-5.727" y="0">35 k</tspan></text><text class="a" transform="translate(2 13.557)"><tspan x="-5.727" y="0">40 k</tspan></text><text class="a" transform="translate(2 2)"><tspan x="-5.727" y="0">45 k</tspan></text></g></g></svg>