<svg xmlns="http://www.w3.org/2000/svg" xmlns:xlink="http://www.w3.org/1999/xlink" viewBox="0 0 228.228 112.277"><defs><style>.a{fill:#77838f;font-size:3px;font-family:HelveticaNeue, Helvetica Neue;}.b,.c,.e{fill:none;stroke-width:0.5px;opacity:0.8;}.b{stroke:#d8d8d8;}.c,.e{stroke:#bbbfc4;}.d{clip-path:url(#a);}.e{stroke-linecap:round;stroke-linejoin:round;}</style><clipPath id="a"><rect width="215.582" height="103.161"/></clipPath></defs><g transform="translate(-26.309 -150.692)"><g transform="translate(11.631 154.43)"><text class="a" transform="translate(17.677 49.263) rotate(-90)"><tspan x="-6.998" y="0">Size in GB</tspan></text></g><g transform="translate(38.488 153.365)"><path class="b" d="M74,487.5H289.582" transform="translate(-74 -384.082)"/><path class="b" d="M74,430.5H289.582" transform="translate(-74 -341.746)"/><path class="b" d="M74,372.5H289.582" transform="translate(-74 -298.667)"/><path class="b" d="M74,315.5H289.582" transform="translate(-74 -256.331)"/><path class="b" d="M74,258.5H289.582" transform="translate(-74 -213.994)"/><path class="b" d="M74,201.5H289.582" transform="translate(-74 -171.658)"/><path class="b" d="M74,143.5H289.582" transform="translate(-74 -128.579)"/><path class="b" d="M74,85.5H289.582" transform="translate(-74 -85.5)"/></g><g transform="translate(38.488 256.654)"><path class="c" d="M89.5,487v2.573" transform="translate(-83.024 -487)"/><path class="c" d="M188.5,487v2.573" transform="translate(-140.663 -487)"/><path class="c" d="M285.5,487v2.573" transform="translate(-197.136 -487)"/><path class="c" d="M383.5,487v2.573" transform="translate(-254.193 -487)"/><path class="c" d="M482.5,487v2.573" transform="translate(-311.831 -487)"/><path class="c" d="M581.5,487v2.573" transform="translate(-369.469 -487)"/><path class="c" d="M74,487.5H289.582" transform="translate(-74 -487.371)"/></g><g transform="translate(38.488 153.493)"><g class="d" transform="translate(0)"><path class="e" d="M5.059,123.421s.27-.87.45-.87.27.427.45.427c.36,0,.54-.508.9-.6a6.916,6.916,0,0,1,1.349-.088h1.8a13.3,13.3,0,0,0,3.148-.589c1.259-.262,1.889-.436,3.148-.722,1.619-.368,2.428-.512,4.047-.914,2.158-.536,3.238-.862,5.4-1.43,1.259-.331,1.889-.463,3.148-.818,1.619-.456,2.428-.722,4.047-1.208,1.079-.324,1.619-.441,2.7-.818,1.259-.44,1.889-.753,3.148-1.223s1.889-.635,3.148-1.128a18.563,18.563,0,0,0,3.148-1.334c1.259-.721,1.888-1.732,3.148-2.27s1.889-.217,3.148-.538a8.553,8.553,0,0,0,2.7-.951c1.259-.717,1.889-1.7,3.148-2.38a29.849,29.849,0,0,1,4.5-1.754c.719-.277,1.08-.354,1.8-.67,1.259-.553,1.888-.977,3.148-1.5s1.889-.523,3.148-1.128C72.872,99.449,74.4,97,77.459,96.864c.9-.14,1.349-.046,2.249-.14a9.537,9.537,0,0,0,2.7-.376c1.259-.376,1.889-1.167,3.148-1.7s1.888-.493,3.148-.972c1.439-.549,2.159-1.075,3.6-1.6,1.8-.655,2.7-.825,4.5-1.349.54-.157.81-.015,1.349-.353,1.439-.9,2.159-2.749,3.6-2.749,1.079,0,1.619.339,2.7.339,1.259,0,1.889-1.532,3.148-1.532h0c1.259,0,1.888-.951,3.148-1.584h0l3.6-.678h0l2.7-1.245c4.5-2.073,6.745-3.158,11.242-5.18,1.259-.566,1.889-.7,3.148-1.29v-.184c1.259-.74,1.889-1.665,3.148-1.665.18,0,.27.155.45.155,1.259,0,1.888-.562,3.148-1,1.079-.377,1.619-.592,2.7-1.039,1.439-.6,2.159-1.334,3.6-1.57a19.858,19.858,0,0,1,2.7-.236,34.439,34.439,0,0,0,4.047-.464,22.247,22.247,0,0,0,2.249-.818c.539-.165.809-.08,1.349-.28,2.518-.934,3.777-1.534,6.3-2.557h0c.36-.15.539-.376.9-.376.18,0,.27.162.45.162s.27-.787.45-.855c8.094-3.062,12.142-4.006,20.236-6.971a55.839,55.839,0,0,0,6.3-2.748c1.259-.615,1.889-1.732,3.148-1.864.719-.133,1.079,0,1.8-.133,1.259-.133,1.889-.706,3.148-1.039s1.888-.3,3.148-.626,1.889-.758,3.148-1.01c1.439-.288,2.159-.043,3.6-.339a15.968,15.968,0,0,0,2.7-.958c1.439-.539,2.159-.838,3.6-1.4,1.079-.422,2.7-1.061,2.7-1.061" transform="translate(-2.945 -35.337)"/></g></g><g transform="translate(43.832 260.969)"><text class="a" transform="translate(1 1)"><tspan x="-4.086" y="0">1. Oct</tspan></text><text class="a" transform="translate(42.372 1)"><tspan x="-4.086" y="0">1. Jan</tspan></text><text class="a" transform="translate(82.844 1)"><tspan x="-4.029" y="0">1. Apr</tspan></text><text class="a" transform="translate(124.601 1)"><tspan x="-3.613" y="0">1. Jul</tspan></text><text class="a" transform="translate(165.137 1)"><tspan x="-4.086" y="0">1. Oct</tspan></text><text class="a" transform="translate(210.705 1)"><tspan x="-8.172" y="0">1. Jan</tspan></text></g><g transform="translate(33.701 152.692)"><text class="a" transform="translate(3.014 104.161)"><tspan x="-1.668" y="0">0</tspan></text><text class="a" transform="translate(3.507 89.24)"><tspan x="-3.336" y="0">20</tspan></text><text class="a" transform="translate(3.507 74.576)"><tspan x="-3.336" y="0">40</tspan></text><text class="a" transform="translate(3.507 59.912)"><tspan x="-3.336" y="0">60</tspan></text><text class="a" transform="translate(3.507 44.991)"><tspan x="-3.336" y="0">80</tspan></text><text class="a" transform="translate(3 30.327)"><tspan x="-5.004" y="0">100</tspan></text><text class="a" transform="translate(3 15.664)"><tspan x="-5.004" y="0">120</tspan></text><text class="a" transform="translate(3 1)"><tspan x="-5.004" y="0">140</tspan></text></g></g></svg>