<svg xmlns="http://www.w3.org/2000/svg" width="690.675" height="367.059" viewBox="0 0 690.675 367.059">
  <g id="ens-illustration" transform="translate(-247.811 -3587.302)">
    <path id="Background_Shape" data-name="Background Shape" d="M.478,97.654C10.077,48.217,107.216,76.38,170.9,61.1S309.925-25.365,359.788,9.5,356.6,128.651,242.233,147.671-9.122,147.09.478,97.654Z" transform="matrix(0.995, -0.105, 0.105, 0.995, 532.811, 3800.375)" fill="#f3f5f7"/>
    <path id="Background_Shape-2" data-name="Background Shape" d="M.478,97.654C10.077,48.217,107.216,76.38,170.9,61.1S309.925-25.365,359.788,9.5,356.6,128.651,242.233,147.671-9.122,147.09.478,97.654Z" transform="translate(640.468 3779.792) rotate(174)" fill="#f3f5f7"/>
    <g id="bg1-right-side" transform="translate(443.8 3587.302)" opacity="0.5">
      <g id="Whiteboard_Stuff" data-name="Whiteboard Stuff" transform="translate(0 0)" opacity="0.5">
        <path id="Wireframy_Stuff" data-name="Wireframy Stuff" d="M3.787.818C.6,2.261.673,3.863,1.975,5.1c-.789,1.734-.659,4.574-.829,5.936A140.545,140.545,0,0,0,0,28.149c-.02,11.282,0,23,3.123,33.921a2.772,2.772,0,0,0-2,2.517c.013,5.715,17.356,5.574,26.257,5.432,1.858-.03,3.348-.06,4.236-.037,6.314.164,12.631.186,18.947.153,1.38-.007,2.922.087,4.517.18,3.228.189,6.676.379,9.457-.267,8.093-1.879,7.581-15.752,7.746-22.46A352.129,352.129,0,0,0,71.433,10.9C71.1,6.755,68.08,1.5,64.641,7.214c-1.918,3.186-1.064,10.628-1.067,14.148-.009,12.513,1.952,25.405.076,37.854-.614,4.081-.479,4.357-4.631,4.271-3.293-.069-6.587-.179-9.88-.246-6.707-.141-13.417-.233-20.121-.479-2.546-.094-11.7-1.693-18.831-1.686,0-.057.01-.115.012-.172.1-4.825-2.268-10.681-2.589-15.756-.775-12.208.149-24.7-.994-36.847-.035-.369-.054-.761-.075-1.156.215.033.424.056.625.069,5.318.338,10.707.2,16.035.322,3.4.078,6.837.076,10.292.072A194.477,194.477,0,0,1,56.3,8.468c2.2.286,2.976-2.543,1.986-4.009-1.11-1.646-4.662-1.562-6.307-1.8A142.227,142.227,0,0,0,37.43,1.477c-5.1-.226-10.21-.4-15.315-.537C19.151.857,13.767,0,9.306,0A14.249,14.249,0,0,0,3.787.818Z" transform="translate(236.838 70.495) rotate(180)" fill="#3498db"/>
        <path id="Wireframy_Stuff-2" data-name="Wireframy Stuff" d="M4.383,3.832a2.138,2.138,0,0,0,.461,1.341A9.018,9.018,0,0,0,2.788,8.814C1.067,14.383.9,20.394.776,26.168.5,38.513.639,50.878.565,63.226c-1.119,1.5-.454,3.223.943,4.423,3.774,3.241,14.65,2.418,19.441,2.672,6.9.364,13.8.449,20.7.473,7.311.038,14.632-.094,21.939-.319,2.711-.082,21.561-.557,13.136-5.126a8.8,8.8,0,0,0-1.619-.662,26.69,26.69,0,0,0,.337-5.253c-.357-6.571-.511-13.156-.8-19.73-.326-7.339-.635-14.678-.888-22.02C73.616,13.8,74.945,4.777,71.873,1.976,69.8.087,68.388.466,67.435,1.748,62.156.216,51.92.493,45.424.771,42.875.879,40.9.989,40.032.988,37.118.986,27.409,0,18.857,0,11.164,0,4.407.8,4.383,3.832ZM9.03,45.922C9.015,33.427,9.476,21,9.755,8.574q.014-.611-.027-1.136c5.971,1.275,15.616,1.036,21.865.8,2.529-.1,4.5-.193,5.45-.19,6.128.023,12.258-.061,18.381-.306.694-.027,1.754,0,3,.035a56.63,56.63,0,0,0,7.266-.152c-.033.333-.055.638-.069.9-.334,6.609.03,13.287.244,19.9.214,6.661.543,13.317.8,19.977.133,3.426-.733,10.577.205,15.506-4.451.085-9.119.623-12.122.623-7.049,0-14.092.081-21.139-.059a204.649,204.649,0,0,1-22.862-1.244c-.414-.055-.912-.162-1.463-.291C10.431,58.12,9.034,50.38,9.03,45.922Z" transform="translate(139.08 72.053) rotate(180)" fill="#3498db"/>
        <path id="Fill_135" data-name="Fill 135" d="M53.267.7c4.532,2.647,2.088,13.237.518,16.9C51.2,23.623,45.967,28.335,40.316,31.461,28.895,37.779,12.431,36.1,3.794,47.055,3.7,47.168.719,50.124.039,46.3c-.558-3.142,5.016-7.939,7.176-9.514,6.142-4.478,14.02-5.922,21.124-8.158,7.577-2.386,15.891-6.783,19.068-14.594C48.531,11.263,46.387-3.337,53.267.7" transform="translate(151.732 68.592)" fill="#3498db" opacity="0.5"/>
        <path id="Fill_137" data-name="Fill 137" d="M5.169.146C9.322,1.291,6.575,7,6.582,9.866A16.946,16.946,0,0,0,9.931,20.02c5.579,7.224,16.5,8.307,24.692,10.378C40.57,31.9,54.8,35.129,55.355,43.171c.622,8.981-11.939-1.948-13-2.4-11.74-4.307-26.929-5.138-35.991-14.618a23.3,23.3,0,0,1-6.3-14.526C-.137,8.6-.17-1.313,5.169.146" transform="translate(96.233 74.239)" fill="#3498db" opacity="0.5"/>
        <path id="Fill_147" data-name="Fill 147" d="M7.37,3.04c-.263,9.069-.136,18.133-1.856,27.076-.327,1.7-.554,7.859-1.9,9.121-3.3,3.1-3.356-2.845-3.485-5.125-.458-8.166.4-16.586.588-24.768C.762,7.583.3,3.935,1.127,2.23,2.446-.477,7.5-1.28,7.37,3.04" transform="translate(156.654 180.808)" fill="#3498db" opacity="0.5"/>
        <path id="Fill_149" data-name="Fill 149" d="M4.166,1.006C17.4,15.859,35.623,14.765,53.983,16.066c9.7.687,19.508,2.1,27.314,8.373A33.155,33.155,0,0,1,90.161,35.18c.919,1.822,5.281,12.331-1.269,9.838-2.323-.884-4.61-7.834-6.112-9.89a29.189,29.189,0,0,0-10.915-9.249c-8.472-4.053-18.589-3.984-27.775-4.5-9.6-.537-19.91-1.04-28.737-5.215A43.515,43.515,0,0,1,3.963,8.593C2.769,7.465.208,5.548.017,3.822-.2,1.85,1.695-1.761,4.166,1.006" transform="translate(166.315 175.488)" fill="#3498db" opacity="0.5"/>
        <path id="Fill_151" data-name="Fill 151" d="M20.094.914c12.431.415,24.847.918,37.26,1.7,2.544.161,11.026-.353,8.865,4.86-1.731,4.178-12.075,1.414-15.5,1.212C37.787,7.923,24.8,7.656,11.89,6.492,8.991,6.231-4.116,6.335,1.3,1.2c2.575-2.446,15.241-.4,18.8-.282" transform="translate(217.194 221.169)" fill="#3498db"/>
        <path id="Fill_153" data-name="Fill 153" d="M71.754,1.186c3.919,5.146,2.118,17.654,1.822,23.841-.287,6,.878,16.957-6.948,17.887,2.485-.326-1.886.151-2.6.189-1.589.085-3.185.113-4.776.13-3.675.04-7.353-.009-11.028-.082-8.325-.166-16.671-.408-24.985-.869-3.495-.194-22.454-.032-23.2-3.663-.959-4.639,17.219-2.015,20.473-1.867,7.925.364,15.862.44,23.794.544,3.931.052,7.867.091,11.8.013,1.623-.032,8.052.635,9.039-.448.841-.922.185-9.4.2-10.695.058-4.227.053-8.464-.1-12.688-.1-2.844-1.639-8.256-.386-10.928a4.328,4.328,0,0,1,6.894-1.364" transform="translate(219.553 226.894)" fill="#3498db"/>
        <path id="Fill_155" data-name="Fill 155" d="M13.631,4.914c-.227,9.415-.3,19.02-2.521,28.227-.74,3.064-1.777,9.383-4.855,10.969C3.023,45.776.234,43.4.023,40.2c-.266-4.025,1.889-9.309,2.331-13.438.516-4.818.817-9.641.993-14.483.134-3.641-.973-9.1,2.5-11.449,3.118-2.109,7.887.015,7.785,4.087" transform="translate(213.667 223.406)" fill="#3498db"/>
        <path id="Fill_157" data-name="Fill 157" d="M2.459,35.8C-1.408,31.952.32,19.759.8,14.811,1.158,11.186,5.125-6.643,11.069,2.654c2.629,4.113-.711,14.987-.688,19.783.015,3.054,1.1,6.916.575,9.851-.69,3.878-4.99,7.018-8.5,3.516" transform="translate(205.017 261.825) rotate(180)" fill="#3498db"/>
        <path id="Wireframy_Stuff-3" data-name="Wireframy Stuff" d="M5.486.038C2.525.161-.639,1.13.112,4.959.777,8.355,4.2,8.382,6.981,8.665A239.61,239.61,0,0,0,32.208,9.792c17.723-.061,35.431.031,53.154.124a3.838,3.838,0,0,0,1.977-.761c-.925,1.125-.48,2.79-.652,4.415-.466,4.384-.767,8.694-1.6,13.077-.665,3.507-1.166,9.462-4.414,11.669-2.766,1.877-8.161,1.806-12.41,1.736-1.2-.02-2.313-.039-3.246-.016a294.946,294.946,0,0,1-34.187-1.545c-5.171-.471-10.405-.828-15.519-1.757-2.847-.518-11.2-4.7-13.473-2.126-5.476,6.193,18.585,8.735,21.851,9.073,11.612,1.2,23.239,2.1,34.916,2.208,7.885.061,21.379.734,27.177-5.735,3.482-3.885,4.7-10.285,6.063-15.131,1.043-3.723,3.873-10.437,1.862-14.281C92.8,9,91.336,7.517,89.112,8.133a4.18,4.18,0,0,0-1.244.544,3.227,3.227,0,0,0,.675-3.518c-1.329-3.085-6.221-2.419-8.877-2.641C70.8,1.779,61.892,1.286,52.994,1.208c-4.234-.037-8.467,0-12.7.033-4.363.037-8.727.072-13.089.029C20.692,1.206,13.935,0,7.429,0Q6.454,0,5.486.038Z" transform="translate(199.481 266.523) rotate(180)" fill="#3498db"/>
        <path id="Line" d="M86.721,0h0c-2.144,0-4.351,3.646-5.812,6.059A21.221,21.221,0,0,1,79.67,7.975c-3.123,3.9-5.9,5.954-9.918,7.322-7.549,2.574-15.884,3.548-23.944,4.489-2.745.32-5.582.652-8.3,1.039-1.4.2-2.833.381-4.347.572-7.287.922-15.547,1.967-21.774,5.49C8.658,28.431.044,36.324,0,41.591A3.817,3.817,0,0,0,2.06,45.079a4.313,4.313,0,0,0,2.139.677c2.083,0,3.242-2.267,4.264-4.267.327-.639.635-1.242.957-1.742A17.015,17.015,0,0,1,19.86,32.2a157.1,157.1,0,0,1,20.206-3.971c1.741-.264,3.54-.536,5.3-.818,1.441-.231,2.938-.457,4.386-.675,7.982-1.2,16.236-2.448,23.449-5.634,1.5-.662,5.372-3.7,9.013-7.445,2.495-2.568,6.708-7.374,6.893-10.71A2.7,2.7,0,0,0,87.716.278,1.963,1.963,0,0,0,86.721,0Z" transform="translate(132.887 215.459) rotate(180)" fill="#3498db" opacity="0.5"/>
        <path id="Wireframy_Stuff-4" data-name="Wireframy Stuff" d="M9.606.537C6.575.83,3.319,1.9,4.07,5.721,1.961,9.765.991,17.532.8,19.067A141.692,141.692,0,0,0,.043,38.86,4.336,4.336,0,0,0,7,42.2c3.622,1.517,9.75,1.745,13.043,2.077,5.411.546,10.868.75,16.3,1.075,12.669.758,25.325,2.123,38.02,2.4,3.8.08,8.885.423,11.923-2.381C89.736,42.187,90.424,34.267,91.461,30c1.125-4.633,2.47-9.349,2.941-14.1a26.845,26.845,0,0,0,.274-4.747,2.972,2.972,0,0,0,2.366-3.423c-.3-3.109-4.6-3.533-7.123-4.024C81.54,2.067,72.583,2.44,64.088,2.2,50.313,1.811,35.8,0,21.723,0,17.638,0,13.588.153,9.606.537Zm1.768,8.842c.39,0,.773,0,1.141,0q13.409.235,26.8.771c9.11.349,18.219.739,27.336.844,3.175.037,6.393-.063,9.62-.163,4.136-.127,8.287-.255,12.387-.1-1.569,4.107-1.331,10.574-2.168,14.827-.831,4.224-1.146,9.232-2.844,13.2-1.912,4.463-3.573,3.43-8.551,3.092-5.117-.347-10.229-.836-15.341-1.256-11.239-.925-22.486-1.51-33.733-2.293C20.19,37.9,14.609,36.234,8.9,35.58,8.817,33.544,8.53,31.489,8.562,30c.1-4.383.528-8.735.909-13.1.154-1.775.887-4.839,1-7.525h.906Z" transform="translate(97.059 265.66) rotate(180)" fill="#3498db"/>
      </g>
    </g>
    <path id="Path_205" data-name="Path 205" d="M1.6-2.051a1.058,1.058,0,0,1,.791.293,1.009,1.009,0,0,1,.3.781A1.055,1.055,0,0,1,2.373-.2a1.162,1.162,0,0,1-.781.317A1.009,1.009,0,0,1,.82-.151a1.009,1.009,0,0,1-.3-.767,1.107,1.107,0,0,1,.3-.8A1.1,1.1,0,0,1,1.6-2.051ZM10.078.2A3.81,3.81,0,0,1,6.992-1.26a5.007,5.007,0,0,1-.937-3.623L6.1-5.3a7.03,7.03,0,0,1,.933-2.871,5.424,5.424,0,0,1,1.87-1.958,4.363,4.363,0,0,1,2.383-.63,3.36,3.36,0,0,1,2.559,1.084,4.458,4.458,0,0,1,1.016,2.832,8.276,8.276,0,0,1-.039,1.27l-.107.811h-6.9a3.569,3.569,0,0,0,.474,2.441,2.243,2.243,0,0,0,1.938,1.045,3.759,3.759,0,0,0,2.891-1.406l1.016.859a4.648,4.648,0,0,1-1.714,1.5A4.857,4.857,0,0,1,10.078.2ZM11.2-9.287a2.582,2.582,0,0,0-1.909.742A5.275,5.275,0,0,0,8-6.25l5.137.01.039-.156a2.891,2.891,0,0,0-.4-2.046A1.86,1.86,0,0,0,11.2-9.287Zm9.346-3.838L20.1-10.566h1.924l-.244,1.4H19.863L18.76-2.6a2.291,2.291,0,0,0-.01.469.745.745,0,0,0,.83.762,5.062,5.062,0,0,0,.859-.1L20.3.01a4.809,4.809,0,0,1-1.289.176,1.846,1.846,0,0,1-1.582-.776,3,3,0,0,1-.41-2.036L18.1-9.17H16.23l.244-1.4H18.34l.449-2.559Zm5.068,3.848a4.094,4.094,0,0,1,3.193-1.475,2.573,2.573,0,0,1,2.2,1.021,4.021,4.021,0,0,1,.532,2.808L30.391,0H28.623l1.162-6.953a3.71,3.71,0,0,0,.01-.889,1.46,1.46,0,0,0-1.611-1.4,3.251,3.251,0,0,0-2.793,1.7L24.082,0H22.314l2.607-15h1.768Z" transform="translate(474 3835)" fill="#d5eaf7"/>
    <path id="Path_206" data-name="Path 206" d="M1.6-2.051a1.058,1.058,0,0,1,.791.293,1.009,1.009,0,0,1,.3.781A1.055,1.055,0,0,1,2.373-.2a1.162,1.162,0,0,1-.781.317A1.009,1.009,0,0,1,.82-.151a1.009,1.009,0,0,1-.3-.767,1.107,1.107,0,0,1,.3-.8A1.1,1.1,0,0,1,1.6-2.051ZM10.078.2A3.81,3.81,0,0,1,6.992-1.26a5.007,5.007,0,0,1-.937-3.623L6.1-5.3a7.03,7.03,0,0,1,.933-2.871,5.424,5.424,0,0,1,1.87-1.958,4.363,4.363,0,0,1,2.383-.63,3.36,3.36,0,0,1,2.559,1.084,4.458,4.458,0,0,1,1.016,2.832,8.276,8.276,0,0,1-.039,1.27l-.107.811h-6.9a3.569,3.569,0,0,0,.474,2.441,2.243,2.243,0,0,0,1.938,1.045,3.759,3.759,0,0,0,2.891-1.406l1.016.859a4.648,4.648,0,0,1-1.714,1.5A4.857,4.857,0,0,1,10.078.2ZM11.2-9.287a2.582,2.582,0,0,0-1.909.742A5.275,5.275,0,0,0,8-6.25l5.137.01.039-.156a2.891,2.891,0,0,0-.4-2.046A1.86,1.86,0,0,0,11.2-9.287Zm9.346-3.838L20.1-10.566h1.924l-.244,1.4H19.863L18.76-2.6a2.291,2.291,0,0,0-.01.469.745.745,0,0,0,.83.762,5.062,5.062,0,0,0,.859-.1L20.3.01a4.809,4.809,0,0,1-1.289.176,1.846,1.846,0,0,1-1.582-.776,3,3,0,0,1-.41-2.036L18.1-9.17H16.23l.244-1.4H18.34l.449-2.559Zm5.068,3.848a4.094,4.094,0,0,1,3.193-1.475,2.573,2.573,0,0,1,2.2,1.021,4.021,4.021,0,0,1,.532,2.808L30.391,0H28.623l1.162-6.953a3.71,3.71,0,0,0,.01-.889,1.46,1.46,0,0,0-1.611-1.4,3.251,3.251,0,0,0-2.793,1.7L24.082,0H22.314l2.607-15h1.768Z" transform="translate(580 3835)" fill="#d5eaf7"/>
    <path id="Path_207" data-name="Path 207" d="M1.6-2.051a1.058,1.058,0,0,1,.791.293,1.009,1.009,0,0,1,.3.781A1.055,1.055,0,0,1,2.373-.2a1.162,1.162,0,0,1-.781.317A1.009,1.009,0,0,1,.82-.151a1.009,1.009,0,0,1-.3-.767,1.107,1.107,0,0,1,.3-.8A1.1,1.1,0,0,1,1.6-2.051ZM10.078.2A3.81,3.81,0,0,1,6.992-1.26a5.007,5.007,0,0,1-.937-3.623L6.1-5.3a7.03,7.03,0,0,1,.933-2.871,5.424,5.424,0,0,1,1.87-1.958,4.363,4.363,0,0,1,2.383-.63,3.36,3.36,0,0,1,2.559,1.084,4.458,4.458,0,0,1,1.016,2.832,8.276,8.276,0,0,1-.039,1.27l-.107.811h-6.9a3.569,3.569,0,0,0,.474,2.441,2.243,2.243,0,0,0,1.938,1.045,3.759,3.759,0,0,0,2.891-1.406l1.016.859a4.648,4.648,0,0,1-1.714,1.5A4.857,4.857,0,0,1,10.078.2ZM11.2-9.287a2.582,2.582,0,0,0-1.909.742A5.275,5.275,0,0,0,8-6.25l5.137.01.039-.156a2.891,2.891,0,0,0-.4-2.046A1.86,1.86,0,0,0,11.2-9.287Zm9.346-3.838L20.1-10.566h1.924l-.244,1.4H19.863L18.76-2.6a2.291,2.291,0,0,0-.01.469.745.745,0,0,0,.83.762,5.062,5.062,0,0,0,.859-.1L20.3.01a4.809,4.809,0,0,1-1.289.176,1.846,1.846,0,0,1-1.582-.776,3,3,0,0,1-.41-2.036L18.1-9.17H16.23l.244-1.4H18.34l.449-2.559Zm5.068,3.848a4.094,4.094,0,0,1,3.193-1.475,2.573,2.573,0,0,1,2.2,1.021,4.021,4.021,0,0,1,.532,2.808L30.391,0H28.623l1.162-6.953a3.71,3.71,0,0,0,.01-.889,1.46,1.46,0,0,0-1.611-1.4,3.251,3.251,0,0,0-2.793,1.7L24.082,0H22.314l2.607-15h1.768Z" transform="translate(682 3841)" fill="#d5eaf7"/>
    <path id="Path_208" data-name="Path 208" d="M15.146-9.1q0,4.761-1.626,7.075A5.783,5.783,0,0,1,8.438.293,5.825,5.825,0,0,1,3.384-1.97q-1.641-2.263-1.7-6.76v-3.618q0-4.7,1.626-6.987a5.827,5.827,0,0,1,5.1-2.285,5.88,5.88,0,0,1,5.068,2.2q1.626,2.2,1.67,6.8ZM12.437-12.8a9.93,9.93,0,0,0-.967-5.017,3.328,3.328,0,0,0-3.062-1.575,3.284,3.284,0,0,0-3.032,1.567,9.7,9.7,0,0,0-.981,4.819v4.336a10.089,10.089,0,0,0,1,5.1,3.321,3.321,0,0,0,3.04,1.648,3.276,3.276,0,0,0,2.981-1.553,9.724,9.724,0,0,0,1.018-4.893Zm11.777,2.739,3.516-5.786h3.164L25.708-8.013,31.055,0H27.92L24.258-5.933,20.6,0H17.446l5.347-8.013L17.607-15.85h3.135Zm9.609,8.643a1.7,1.7,0,0,1,.417-1.172,1.591,1.591,0,0,1,1.252-.469,1.638,1.638,0,0,1,1.267.469,1.663,1.663,0,0,1,.432,1.172A1.573,1.573,0,0,1,36.76-.293a1.668,1.668,0,0,1-1.267.454,1.619,1.619,0,0,1-1.252-.454A1.6,1.6,0,0,1,33.823-1.421Zm7.9,0a1.7,1.7,0,0,1,.417-1.172,1.591,1.591,0,0,1,1.252-.469,1.638,1.638,0,0,1,1.267.469,1.663,1.663,0,0,1,.432,1.172,1.573,1.573,0,0,1-.432,1.128,1.668,1.668,0,0,1-1.267.454,1.619,1.619,0,0,1-1.252-.454A1.6,1.6,0,0,1,41.719-1.421Z" transform="translate(523 3633)" fill="#d5eaf7"/>
    <path id="Path_209" data-name="Path 209" d="M15.146-9.1q0,4.761-1.626,7.075A5.783,5.783,0,0,1,8.438.293,5.825,5.825,0,0,1,3.384-1.97q-1.641-2.263-1.7-6.76v-3.618q0-4.7,1.626-6.987a5.827,5.827,0,0,1,5.1-2.285,5.88,5.88,0,0,1,5.068,2.2q1.626,2.2,1.67,6.8ZM12.437-12.8a9.93,9.93,0,0,0-.967-5.017,3.328,3.328,0,0,0-3.062-1.575,3.284,3.284,0,0,0-3.032,1.567,9.7,9.7,0,0,0-.981,4.819v4.336a10.089,10.089,0,0,0,1,5.1,3.321,3.321,0,0,0,3.04,1.648,3.276,3.276,0,0,0,2.981-1.553,9.724,9.724,0,0,0,1.018-4.893Zm11.777,2.739,3.516-5.786h3.164L25.708-8.013,31.055,0H27.92L24.258-5.933,20.6,0H17.446l5.347-8.013L17.607-15.85h3.135Zm9.609,8.643a1.7,1.7,0,0,1,.417-1.172,1.591,1.591,0,0,1,1.252-.469,1.638,1.638,0,0,1,1.267.469,1.663,1.663,0,0,1,.432,1.172A1.573,1.573,0,0,1,36.76-.293a1.668,1.668,0,0,1-1.267.454,1.619,1.619,0,0,1-1.252-.454A1.6,1.6,0,0,1,33.823-1.421Zm7.9,0a1.7,1.7,0,0,1,.417-1.172,1.591,1.591,0,0,1,1.252-.469,1.638,1.638,0,0,1,1.267.469,1.663,1.663,0,0,1,.432,1.172,1.573,1.573,0,0,1-.432,1.128,1.668,1.668,0,0,1-1.267.454,1.619,1.619,0,0,1-1.252-.454A1.6,1.6,0,0,1,41.719-1.421Z" transform="translate(621 3633)" fill="#d5eaf7"/>
    <g id="ens-blue" transform="translate(443.235 3711.01)" opacity="0.2">
      <path id="Path_82" data-name="Path 82" d="M168.233,40.725c.572,1.22,1.982,3.622,1.982,3.622l16.3-26.947L170.61,28.508A6.956,6.956,0,0,0,168.346,31,11.575,11.575,0,0,0,168.233,40.725Z" transform="translate(-34.622 -17.41)" fill="#3498db"/>
      <path id="Path_83" data-name="Path 83" d="M135.406,146.969A17.587,17.587,0,0,0,142.3,159.75l17.076,11.9s-10.671-15.384-19.68-30.693a15.629,15.629,0,0,1-1.811-5.219,8.355,8.355,0,0,1,.02-2.5c-.234.433-.658,1.328-.658,1.328a20.281,20.281,0,0,0-1.846,5.9,37.167,37.167,0,0,0,.008,6.51Z" transform="translate(-7.5 -115.758)" fill="#3498db"/>
      <path id="Path_84" data-name="Path 84" d="M325.412,212.852c-.572-1.219-1.982-3.622-1.982-3.622l-16.3,26.947,15.906-11.107a6.957,6.957,0,0,0,2.264-2.489A11.553,11.553,0,0,0,325.412,212.852Z" transform="translate(-153.426 -180.287)" fill="#3498db"/>
      <path id="Path_85" data-name="Path 85" d="M331.268,42.087a17.586,17.586,0,0,0-6.891-12.781L307.3,17.41S317.971,32.794,326.98,48.1a15.63,15.63,0,0,1,1.811,5.219,8.357,8.357,0,0,1-.02,2.5c.234-.433.658-1.328.658-1.328a20.283,20.283,0,0,0,1.846-5.9A37.659,37.659,0,0,0,331.268,42.087Z" transform="translate(-153.57 -17.418)" fill="#3498db"/>
    </g>
    <g id="Big_Leaf_Plant" transform="translate(316.312 3886.635)">
      <g id="Big_Ass_Leaf" transform="translate(-8.667 -99.034)">
        <path id="leaf" d="M-7.841-98.886a10.021,10.021,0,0,1,5.434.569c3.6,1.516,4.612,5.75,4.549,9.162-.063,3.728-.821,7.708,1.959,10.741,1.264,1.39,2.906,2.4,4.17,3.791a19.13,19.13,0,0,1,3.222,5.055c1.453,3.349,2.148,7.329.821,10.868-1.137,3.1-4.107,5.939-3.475,9.478.632,3.665,4.36,6.508,6.7,9.225,2.654,3.1,5.055,7.077,5.434,11.184a14.718,14.718,0,0,1-3.917,10.8C11.873-12.135,4.038-9.291-3.86-9.291c-3.349,0-7.2-.19-10.046-1.959a5.289,5.289,0,0,1-1.9-2.022A8.4,8.4,0,0,0-17.634-15.1a10.612,10.612,0,0,1-3.475-4.676c-2.843-7.077-.569-15.859,3.412-22.178.948-1.516,1.706-2.906,1.264-4.739a18.144,18.144,0,0,0-2.717-5.118,34.2,34.2,0,0,1-3.033-4.8,10.734,10.734,0,0,1-.948-5.623,19.616,19.616,0,0,1,4.107-10.046c2.148-2.843,4.676-5.56,4.739-9.288,0-3.981-2.654-7.456-1.516-11.5a7.69,7.69,0,0,1,2.906-4.36A11.7,11.7,0,0,1-7.841-98.886Z" transform="translate(23.184 99.034)" fill="#dde3e9"/>
        <path id="middle_thing" d="M-1.278-89.246A.935.935,0,0,1-.2-90h.126c.632.19.632.821.632,1.327a21.854,21.854,0,0,0,.569,4.928c.821,3.349,2.4,6.445,3.6,9.73A18,18,0,0,1,5.8-64.036c-.7,3.222-1.706,6.382-2.4,9.6-.632,2.843-1.264,5.876-.316,8.719.885,2.717,2.843,4.928,4.3,7.456A34.937,34.937,0,0,1,11.8-21.639a31.565,31.565,0,0,1-.632,8.088c-.379,1.516-.821,3.6-2.148,4.676a1.5,1.5,0,0,1-2.148-.063c-.505-.7-.063-1.706.063-2.464a36.663,36.663,0,0,0,.632-9.478,36.549,36.549,0,0,0-1.516-9.1A32.944,32.944,0,0,0,2.2-37.562c-1.643-2.4-3.349-4.865-3.981-7.708-.7-2.906-.126-5.876.632-8.783a86.276,86.276,0,0,1,2.906-8.909,15.333,15.333,0,0,0,.821-8.593C1.376-77.494-1.657-83.054-1.278-89.246Z" transform="translate(15.421 95.713)" fill="#c5cfd6"/>
      </g>
      <g id="Big_Ass_Leaf-2" transform="translate(-2.944 -92.715)">
        <path id="leaf-2" d="M34.261-98a14.262,14.262,0,0,1,6.066,3.475c3.412,3.665,2.338,9.162.505,13.205-2.022,4.36-5.055,8.719-3.349,13.711.821,2.275,2.148,4.36,2.906,6.7a24.065,24.065,0,0,1,1.074,7.645C41.4-48.528,40.137-43.473,36.725-40c-3.033,3.033-7.961,4.865-9.1,9.351-1.2,4.739,1.706,9.983,2.97,14.406C32.05-11.186,32.808-5.247,31.1-.192,29.459,4.61,25.415,8.4,20.8,10.549c-9.225,4.3-19.966,3.6-29.191-.505-3.917-1.769-8.277-3.917-10.741-7.519A6.663,6.663,0,0,1-20.267-.887a8.392,8.392,0,0,0-1.2-3.159,14.183,14.183,0,0,1-1.643-7.329c.379-9.92,7.708-19.082,15.733-24.452,1.9-1.264,3.6-2.591,3.981-4.928.442-2.464-.063-5.055-.442-7.456A55.841,55.841,0,0,1-4.85-55.478a14.21,14.21,0,0,1,1.9-7.14,25.4,25.4,0,0,1,10.109-9.73c4.044-2.211,8.467-4.17,10.425-8.53,2.085-4.676.885-10.236,4.3-14.406a10.018,10.018,0,0,1,5.75-3.665A15.982,15.982,0,0,1,34.261-98Z" transform="translate(23.127 99.033)" fill="#dde3e9"/>
        <path id="middle_thing-2" d="M41.489-85.5a1.136,1.136,0,0,1,1.58-.316c.063,0,.063.063.126.063.7.569.316,1.264,0,1.9a25.557,25.557,0,0,0-1.9,6.129c-.758,4.423-.632,8.909-.885,13.4A23.015,23.015,0,0,1,36.5-51.887c-2.464,3.475-5.371,6.634-7.835,10.109-2.211,3.033-4.549,6.255-4.928,10.109-.379,3.728.758,7.393,1.137,11.057A46.028,46.028,0,0,1,21.334,1.377a41.211,41.211,0,0,1-4.992,9.288c-1.2,1.643-2.906,3.791-4.992,4.36-.948.253-2.275-.063-2.464-1.2-.19-1.074.821-2.085,1.39-2.843A46.077,46.077,0,0,0,15.963.051,45.442,45.442,0,0,0,19-11.449a40.2,40.2,0,0,0-.569-10.994C17.8-26.171,17.1-29.962,17.8-33.69c.758-3.791,2.906-7.077,5.307-10.046,2.527-3.159,5.244-6.129,8.024-9.035a20.287,20.287,0,0,0,5.5-9.73C38.393-70.21,37.762-78.361,41.489-85.5Z" transform="translate(11.35 94.241)" fill="#c5cfd6"/>
      </g>
      <g id="Big_Ass_Leaf-3" transform="translate(-23.225 -63.63)">
        <path id="leaf-3" d="M-14.806-99a11.793,11.793,0,0,1,9.225,4.8c2.654,3.286,3.159,7.266,4.233,11.184a9.874,9.874,0,0,0,3.033,5.181c1.453,1.2,3.349,1.453,5.055,2.022A11.829,11.829,0,0,1,14.2-68.356c1.39,4.233-.063,8.467.19,12.7.253,3.917,4.107,6.382,7.2,8.214,3.1,1.9,5.876,3.6,6.824,7.2.948,3.854,1.327,8.088-.063,11.879-2.275,6.318-8.846,9.035-15.227,9.478C7.309-18.5.043-19.135-4.317-23.305a12.35,12.35,0,0,1-3.412-9.541,27.523,27.523,0,0,1,1.074-6.382,27.277,27.277,0,0,0,1.074-4.486c.379-4.107-3.412-4.865-6.634-6a15.9,15.9,0,0,1-8.972-7.961A15.06,15.06,0,0,1-22.7-68.988a13.393,13.393,0,0,1,2.97-5.307c.632-.7,1.453-1.2,2.022-1.959a2.633,2.633,0,0,0,.253-2.275c-.821-3.538-3.412-6.508-4.3-10.046-.821-3.222-.316-7.2,2.591-9.225A8.87,8.87,0,0,1-14.806-99Z" transform="translate(23.225 99)" fill="#c5cfd6"/>
        <path id="middle_thing-3" d="M-3.033-84.622C.884-80.389,1.958-74.7,2.274-69.205c.19,3.159,0,6.445.885,9.414.758,2.591,2.591,4.549,4.486,6.382,3.791,3.728,8.024,7.519,9.1,12.953.632,3.159.19,6.445,1.137,9.6a27.572,27.572,0,0,0,3.981,8.088c1.39,1.959,3.222,3.412,4.8,5.244.442.569,1.137,1.39.948,2.148A1.957,1.957,0,0,1,25.4-14.3c-1.9-.316-3.538-2.148-4.8-3.538a29.485,29.485,0,0,1-4.676-6.445,26.54,26.54,0,0,1-3.033-8.277c-.505-3.033-.253-6.255-1.39-9.162C9.54-46.649,4.865-49.555,1.453-53.409c-4.233-4.8-3.6-10.741-3.159-16.617.253-3.222.505-6.887-1.137-9.857-.632-1.137-2.022-2.148-2.275-3.475C-5.371-84.433-4.044-85.633-3.033-84.622Z" transform="translate(16.57 93.847)" fill="#afb9c5"/>
      </g>
      <path id="Base" d="M4.8,81c0,24.073,3.917,36.647,24.642,36.647S54.084,105.073,54.084,81Z" transform="translate(-10.318 -66.281)" fill="#89c5cc"/>
    </g>
    <g id="person" transform="translate(724.374 3626.167)">
      <g id="Head" transform="translate(100.562 17.169)">
        <path id="Head-2" d="M378.432,395.906l-2.02-28.2c3.8-3.394,6.708-7.758,7.112-13.092,1.051-15.355-20.608-14.951-25.861-7.92-5.172,7.112-7.435,26.588-2.344,28.77,2.02.808,6.788.162,11.8-2.02l-5.738,20.042Z" transform="translate(-352.454 -342.013)" fill="#b28b67"/>
      </g>
      <path id="hair" d="M392.194,362.761a22.008,22.008,0,0,1,7.273.242,11.918,11.918,0,0,1,0-6.3,18.779,18.779,0,0,1,2.829-5.334,6.589,6.589,0,0,1,1.859-2.1,5.074,5.074,0,0,1,2.586-.97,6.324,6.324,0,0,1,2.748.4c.4.162.727.4,1.131.566s.647-.081.97-.242a5.034,5.034,0,0,1,2.829-.647,6.891,6.891,0,0,1,5.253,2.748,3.713,3.713,0,0,1,.566,1.293c.081.162.081.323.242.4s.323.081.485.162a6.434,6.434,0,0,1,3.233,3.879,10.679,10.679,0,0,1,0,4.526c-.323,1.859-2.667,6.384-4.445,7.92a11.044,11.044,0,0,1-5.819,2.263,15.429,15.429,0,0,1,2.1,5.657,25.5,25.5,0,0,1,.4,6.546A20.732,20.732,0,0,1,415.226,390a7.027,7.027,0,0,1-3.717,4.041,22.725,22.725,0,0,1-2.505.808,13.483,13.483,0,0,1-2.505.4,5.071,5.071,0,0,1-4.445-1.616A12.864,12.864,0,0,1,401,391.855c-.081-.242-.162-.323,0-.566l.727-.485a6.1,6.1,0,0,0,2.748-3.718c.4-1.616.242-3.879-1.212-4.768-1.859-1.212-4.2-.485-6.142.242a9.988,9.988,0,0,0-3.879-6.95c-2.505-1.7-5.576-2.344-8.162-3.879A5.443,5.443,0,0,1,383.3,370.2a1.481,1.481,0,0,1,.162-2.182C384.759,366.236,389.769,363.165,392.194,362.761Z" transform="translate(-278.535 -348.275)" fill="#191847"/>
      <path id="Leg_1_" d="M508.533,506.1l-51.479,89.058-38.63,75.32H410.1L474.752,506.1Z" transform="translate(-384.611 -378.553)" fill="#997659"/>
      <path id="shoe" d="M550.865,703.137a1.418,1.418,0,0,1,1.778.889v.081l1.293,4.687a43.665,43.665,0,0,1-.647,5.576H514.255s-1.536-5.091,1.778-5.5,5.415-.727,5.415-.727l18.183-8.162a.679.679,0,0,1,.889.323h0l1.131,2.828a15.719,15.719,0,0,0,4.93,1.455Z" transform="translate(-513.9 -415.737)" fill="#e4e4e4"/>
      <path id="Pant" d="M415.5,658.437l-16-5.011s10.506-32.569,25.861-71.764S458.172,506.1,458.172,506.1h45.257s-19.477,46.065-41.377,83.725A656.023,656.023,0,0,1,415.5,658.437Z" transform="translate(-370.94 -378.553)" fill="#86ccd4"/>
      <path id="Leg-2_1_" d="M342.281,506.1c4.849,31.275,14.224,71.279,15.112,72.572q.849,1.212,63.682,22.063l-1.778,7.6q-74.916-11.152-78.876-17.375c-4.041-6.142-24.164-54.874-31.922-84.856Z" transform="translate(-215.045 -378.553)" fill="#b28b67"/>
      <path id="Pant-2" d="M427.234,594.089l-3.152,12.2q-56.005,5.091-68.612-7.354Q342.863,586.452,326.7,506h43.155c6.788,43.964,10.668,66.834,11.476,68.693C382.139,576.633,397.413,583.017,427.234,594.089Z" transform="translate(-235.912 -378.534)" fill="#9bdee6"/>
      <path id="shoe-2" d="M303.526,621a1.35,1.35,0,0,1,1.212-1.616h.081l4.849-.485a39.469,39.469,0,0,1,5.253,1.616l-6.788,39.842s-5.253.646-5.011-2.748.242-5.657.242-5.657l-4.849-19.961A.764.764,0,0,1,299,631.1h0l2.99-.647a16.084,16.084,0,0,0,2.263-4.768Z" transform="translate(-100.809 -400.193)" fill="#e4e4e4"/>
      <path id="Fill_35" d="M531.9,414.9h0" transform="translate(-506.411 -361.056)" fill="#c5cfd6"/>
      <path id="Fill_37" d="M531.9,414.9h0" transform="translate(-506.411 -361.056)" fill="#c5cfd6"/>
      <path id="Fill_39" d="M531.925,414.8h0c.081.242.081.081,0,0" transform="translate(-506.517 -361.037)" fill="#c5cfd6"/>
      <path id="Fill_41" d="M531.9,414.8h0" transform="translate(-506.411 -361.037)" fill="#c5cfd6"/>
      <path id="Fill_43" d="M531.9,414.9" transform="translate(-506.411 -361.056)" fill="#c5cfd6"/>
      <path id="Fill_45" d="M531.9,414.9h0" transform="translate(-506.411 -361.056)" fill="#c5cfd6"/>
      <path id="Fill_47" d="M531.936,414.892h0" transform="translate(-506.447 -361.048)" fill="#c5cfd6"/>
      <path id="Fill_49" d="M531.9,414.9h0" transform="translate(-506.411 -361.056)" fill="#c5cfd6"/>
      <g id="Body_Pointing_Up" data-name="Body/Pointing Up" transform="translate(9.892 50.511)">
        <path id="Skin" d="M25.527,10.908,0,21.494,5.7,35.58,31.477,16.65A69.388,69.388,0,0,0,49,9.608c1.108-1.01,2.447-3.054-2.149-2.7s-9.445.519-10.079-1.05S38.921,2.416,37.639.3A.609.609,0,0,0,37.08,0Q34.814,0,25.527,10.908ZM8.405,89.587l30.633,9.2a69.389,69.389,0,0,0,16.17,9.757c1.473.277,3.912.116.864-3.341s-6.1-7.231-5.228-8.681,4.041-.357,4.959-2.653q.918-2.3-15.759-3.29L16.226,76.558Z" transform="translate(57.533 108.631) rotate(180)" fill="#b28b67"/>
        <path id="Coat_Back" data-name="Coat Back" d="M10.9,63.33c20.335-21.65,45.136-35.778,78.961-48.31L82.352,0c-34.9,3.291-53.558,5.919-68.185,27.6C10.5,33.045,3.932,51.77,0,61.495Z" transform="matrix(-0.966, 0.259, -0.259, -0.966, 118.797, 80.422)" fill="#0769ad"/>
        <path id="Shirt" d="M62.228,92.13H0S21.143,27.645,21.6,3.614c.016-.817,1.524-2.256,2.191-2.068C31.114,3.614,39.461,0,39.461,0,54.213,23.726,59.315,52.938,62.228,92.13Z" transform="translate(68.892 17.152)" fill="#f2f2f2"/>
        <path id="Coat_Front" data-name="Coat Front" d="M1.149,0c-5.27,35.416,8.58,84.519,21.42,109.286a4.378,4.378,0,0,0,3.993,2.729H36.2l.013-.038c3.248-.026,6.864-.156,10.809-.286,17.716-.583,42.046-1.166,69.344,7.6l3.3-16.465C94.439,86.6,68.9,74.032,46.515,75.817,56.233,34.129,55.785,0,34.329,0Z" transform="translate(139.258 129.167) rotate(180)" fill="#3498db"/>
      </g>
    </g>
    <g id="etherscan-logo" transform="translate(702.653 3708.667)">
      <path id="Path_1" data-name="Path 1" d="M230.248,238.226a2.216,2.216,0,0,1,2.227-2.216l3.692.012a2.22,2.22,0,0,1,2.22,2.22V252.2c.416-.123.949-.255,1.534-.393a1.85,1.85,0,0,0,1.426-1.8V232.693a2.22,2.22,0,0,1,2.22-2.22h3.7a2.22,2.22,0,0,1,2.22,2.22v16.072s.926-.375,1.828-.756a1.853,1.853,0,0,0,1.131-1.7V227.144a2.219,2.219,0,0,1,2.219-2.22h3.7a2.22,2.22,0,0,1,2.219,2.22v15.778a43.384,43.384,0,0,0,9.037-8.482,3.726,3.726,0,0,0,.567-3.478,26.128,26.128,0,1,0-47.337,21.592A3.3,3.3,0,0,0,226,254.188c.7-.062,1.571-.149,2.607-.27a1.849,1.849,0,0,0,1.64-1.835V238.226" transform="translate(-219.378 -213.334)" fill="#dde3e9"/>
      <path id="Path_2" data-name="Path 2" d="M244.417,292.778a26.137,26.137,0,0,0,41.513-21.141c0-.6-.028-1.2-.068-1.789-9.55,14.244-27.184,20.9-41.445,22.93" transform="translate(-233.628 -245.496)" fill="#f0f3f6"/>
    </g>
  </g>
</svg>
