<svg xmlns="http://www.w3.org/2000/svg" xmlns:xlink="http://www.w3.org/1999/xlink" viewBox="0 0 230.201 111.778"><defs><style>.a{fill:#77838f;font-size:3px;font-family:HelveticaNeue, Helvetica Neue;}.b,.d,.f{fill:none;stroke-width:0.5px;}.b{stroke:#d8d8d8;}.b,.c,.d{opacity:0.8;}.d,.f{stroke:#bbbfc4;}.e{clip-path:url(#a);}.f{stroke-linecap:round;stroke-linejoin:round;}</style><clipPath id="a"><rect width="213.735" height="102.895"/></clipPath></defs><g transform="translate(-26.63 1028.895)"><g transform="translate(22.733 -1047.372)"><text class="a" transform="translate(6.898 70.949) rotate(-90)"><tspan x="-30.75" y="0">Names Registered Per Day (Auction Finalized)</tspan></text></g><g transform="translate(43.097 -1026.317)"><path class="b" d="M88,510.5H301.735" transform="translate(-88 -407.362)"/><path class="b" d="M88,449.5H301.735" transform="translate(-88 -361.165)"/><path class="b" d="M88,389.5H301.735" transform="translate(-88 -315.726)"/><path class="b" d="M88,328.5H301.735" transform="translate(-88 -269.529)"/><path class="b" d="M88,268.5H301.735" transform="translate(-88 -224.09)"/><path class="b" d="M88,207.5H301.735" transform="translate(-88 -177.893)"/><path class="b" d="M88,147.5H301.735" transform="translate(-88 -132.454)"/><path class="b" d="M88,85.5H301.735" transform="translate(-88 -85.5)"/></g><g class="c" transform="translate(43.097 -923.301)"><path class="d" d="M90.5,510v2.427" transform="translate(-89.436 -510)"/><path class="d" d="M188.5,510v2.427" transform="translate(-145.71 -510)"/><path class="d" d="M286.5,510v2.427" transform="translate(-201.985 -510)"/><path class="d" d="M383.5,510v2.427" transform="translate(-257.686 -510)"/><path class="d" d="M481.5,510v2.427" transform="translate(-313.96 -510)"/><path class="d" d="M579.5,510v2.427" transform="translate(-370.235 -510)"/><path class="d" d="M88,510.5H301.735" transform="translate(-88 -510.379)"/></g><g transform="translate(43.097 -1026.196)"><g class="e"><path class="f" d="M4.922,154.492H6.289l.342-.171.342-.935.342-.764.342-.147L8,150.782l.342.165.342-3.9.342,1.952L9.365,148l.342-.135.342-3.334.342-.87.342-.847.342-.67.342-.758.342-4.551.342,4.521.342,1.864.342-.318.342-.77.342-10.354.342,4.345.342,6.785.342-.429.342-.382.342-.288.342-2.34.342,4.745.342.159.342-5.145.342,4.133.342.853.342.024.342-1.358.342.864.342.253.342.2.342-.559.342-.817.342-.482.342,1.546.342.412.342,4.786.342,1.893.342-9.919.342-1.252.342,2.275.342.259.342,6.82.342-5.227.342-1.764.342-.265.342.388.342,2.951.342-1.934.342-.635.342,1.752.342.688.342-1.052.342-.888.342,1.993.342-1.064.342,1.4.342-1.111.342,1.388.342-2.928.342-1.346.342-3.916.342-2.687.342,4,.342,2.828.342-.476.342,8.979.342.212.342.047.342.494.342.341.342-.582.342-.317.342.717.342.341.342-.006.342-.835L35,149.089l.342,1.135.342-1.529.342,1.541.342,2.146.342-.717.342-1.688.342-.453.342-3.216.342,3.975.342-.194.342-.888.342,3.04.342-9.143.342,4.892.342,4.351.342.235.342-1.57.342-.876.342-5.239.342,6.456.342,1.517.342-1.788.342-.817.342.735.342-2.481.342,3.2.342.47.342-.259.342.647.342-.464L45.6,153.4l.341-1.094.342-.288.342-.347.342-.329.342,1.811.342.018.342.1.342-.129.341-.259.342-.759.342,1.088.342.106.342-.441.342-.129.342.212.341-1.641.342,1.6.342-2.229.342,1.682.342,1.117.342-1.664.342-.059.342,1.74.341.147.342-.282.342-.076.342.117.342.229.342.076.342-.053.341-.911.342.153.342-.788.342.071.342-2.181.342,3.387.342.012.342.2.341-.459.342.235.342.429.342-.318.342-2.252.342,2.364.342.1.341-.124.342-1.047.342-2.575.342,3.269.342-.27.342-.512.342-.712.342,1.211.341-1.229.342.382.342.659.342-.012.342-.229.342-.094.342-.67.341.088.342.864.342-2.081.342.059.342.165.342.846.342-.017.342-.047.341-2.869.342,2.428.342.476.342.517.342-.535.342-1.37.342.441.341,1.9.342-.123.342.617.342-.429.342-.106.342-.471.342.911.342-.053.341-.371.342.259.342-.694.342.888.342-.535.342.306.342-.406.341.012.342.417.342.47.342-.764.342.8.342.347.342.547.341-.6.342.159.342.176.342-.235.342.388.342.053.342-.282.342.141.341-.106.342-.341.342.376.342-.864.342.97.342.153.342-.388.341-.253.342.071.342.323.342-.611.342.705.342-.394.342.088.342.1.341-.082.342.124.342-.124.342-.282.342.505.342-.1.342.259.341.012.342-.041.342-.194.342.224h.342l.342-.171.342-.076.342.118.341.229.342-.194.342.176.342-.041.342-.182.342.165h.342l.341.076.342-.194.342-.488.342.282.342-.076.342-.112.342.059.342.382.341.059.342-.265.342.071.342-.059.342.165.342-.041.342-.124.341.118.342-.371.342.194.342-.106.342-.265.342.494.342-.206.342-.059.341.023.342-.023.342.076.342.182.342.041.342.065.342-.359.341.306.342-.053.342.082.342.029h.684l.342-.212.342.035.341.253.342-.082.342.065.342.024.342-.124.342-.182.342.082.341.147.342-.265.342-.2.342-.018.342.241.342.147.342-.482.341.129.342.188.342-.129.342.029.342.247.342-.047.342-.024.342-.564.341.035.342.106.342.018.342.2.342.065.342-.429.342.406.341.212.342-.817.342.694.342-.512.342-1.511.342,1.7.342-.753.342.717.341-.435.342-4.839.342,3.845.342,1.57.342-.459.342.641.342.294.341-.265.342.071.342-.341.342.312.342.129.342.2.342.082.342-.188.341.006.342.035.342-.129.342.129.342.053.342-.259.342.041.341.094.342.065.342-.218.342-.224.342-.476.342.876.342-.118.342.053h.341l.342-.253.342.094.342-.035.342.417.342-.147.342.159.341-.053.342-.406.342-.676.342.935.342-1.158.342,1.435.342-.059.342.029.341-.006.342.082.342-.147.342.1.342-.018.342-.564.342.323.341-.147.342-.165.342.506.342-3,.342-1.47.342,4.469.342-4.457.342-.87.341,4.921.342.459.342.082.342-.705L142,152.4l.342,2.017.342-.171.341-.024.342.171.342-.047.342.006.342-.135.342-.053.342.182.342-.135.341.194.342.029.342-.047.342-.006.342-.235.342.017.342.094.341-.317.342.347.342-.159.342.188.342-.306.342.412.342-.041.341.017.342.018.342.006.342.018.342-.029.342-.071h.342l.342.082.341.012.342.006.342-.029.342-.076.342-.018.342.076.342-.018.341.047.342-.012.342-.135.342-.059.342-.423.342.582.342-.059.342.029.341-.276.342.353.342.006.342-.135.342-.024.342.059.342-.112.341.223.342-.094.342.012.342-.094.342-.212.342.288.342.024.342-.012.341-.894.342.753.342-.059.342.182.342-.053.342-.071.342.041.341-.012.342.065h.342l.342-.035.342.088.342-.176.342.065.342-.035.341.165.342-.017.342-.065.342-.112.342.117.342-.012.342.106.341-.2.342.1.342-.065.342-.094.342.082.342.082.342.053.341-.012.342.041.342-.006.342.012.342-.018.342-.088.342.129.342-.029.341-.041.342-.182.342.135.342.065.342.047.342-.118.342.165.341-.165.342.047.342-.212.342.223.342.1.342-.029.342-.076.342-.006.341-.029.342-.029.342.153.342-.059.342-.012.342.035.342-.012.341-.041.342.082.342-.088.342.041.342.035.342-.018.342-.088.342-.1.341.035.342.076.342.106.342-.3.342.1.342.035.342-.088.341.129.342.076.342-.035.342-.188.342.153.342-.083.342-.029.342-2.916.341,1.235.342-.5.342-33.562.342-50.319L192.93,153l.342.629.342.206.341.464.342.035.342-.118.342-.006.342.082.342-.165.342-36.225.342,25.483.341-4.992.342-31.568.342,47.414.342-1.829.342.024.342,1.911.342-.017.341.012.342-.141.342-.024.342.159.342-.082.342-.124.342.229.342.053.341-.065.342-.07.342.041.342.082.342-.041.342-.329.342-.024.341-.97.342,1.317.342-.471.342.071.342.406h.342l.342-.006.342.076.341-.188.342-.141.342.347.342-.117.342.017.342-.447.342.406.341.024.342-.1.342.176.342-.382.342.294.342-.694.342.324.342-.276.341.5.342.147.342-.8.342.8.342-.029.342-.053.342-1.77.341,1.881" transform="translate(-2.826 -51.597)"/></g></g><g transform="translate(41.651 -919.117)"><text class="a" transform="translate(2 1)"><tspan x="-5.364" y="0">May &apos;17</tspan></text><text class="a" transform="translate(44.471 1)"><tspan x="-5.169" y="0">Sep &apos;17</tspan></text><text class="a" transform="translate(86.601 1)"><tspan x="-4.92" y="0">Jan &apos;18</tspan></text><text class="a" transform="translate(126.77 1)"><tspan x="-5.364" y="0">May &apos;18</tspan></text><text class="a" transform="translate(169.241 1)"><tspan x="-5.169" y="0">Sep &apos;18</tspan></text><text class="a" transform="translate(208.853 1)"><tspan x="-9.84" y="0">Jan &apos;19</tspan></text></g><g transform="translate(32.937 -1026.895)"><text class="a" transform="translate(7.387 103.895)"><tspan x="-4.059" y="0">0 k</tspan></text><text class="a" transform="translate(7.555 89.092)"><tspan x="-6.561" y="0">2.5 k</tspan></text><text class="a" transform="translate(7.387 74.289)"><tspan x="-4.059" y="0">5 k</tspan></text><text class="a" transform="translate(7.555 59.728)"><tspan x="-6.561" y="0">7.5 k</tspan></text><text class="a" transform="translate(7.832 44.925)"><tspan x="-5.727" y="0">10 k</tspan></text><text class="a" transform="translate(8 30.364)"><tspan x="-8.229" y="0">12.5 k</tspan></text><text class="a" transform="translate(7.832 15.561)"><tspan x="-5.727" y="0">15 k</tspan></text><text class="a" transform="translate(8 1)"><tspan x="-8.229" y="0">17.5 k</tspan></text></g></g></svg>