<svg xmlns="http://www.w3.org/2000/svg" xmlns:xlink="http://www.w3.org/1999/xlink" viewBox="0 0 226.84 113.363"><defs><style>.a{fill:#77838f;font-size:3px;font-family:HelveticaNeue, Helvetica Neue;}.b,.d,.g{fill:none;stroke-width:0.5px;}.b{stroke:#d8d8d8;}.b,.c,.d{opacity:0.8;}.d,.g{stroke:#bbbfc4;}.e{clip-path:url(#a);}.f{fill:url(#b);}.g{stroke-linecap:round;stroke-linejoin:round;}</style><clipPath id="a"><rect width="209.346" height="103.475"/></clipPath><linearGradient id="b" x2="0" y2="1" gradientUnits="objectBoundingBox"><stop offset="0" stop-color="#d8d8d8"/><stop offset="1" stop-color="#bbbfc4" stop-opacity="0"/></linearGradient></defs><g transform="translate(-22.565 9739.218)"><g transform="translate(11.065 -9734.178)"><text class="a" transform="translate(14.499 47.798) rotate(-90)"><tspan x="-8.613" y="0">Ether Supply</tspan></text></g><g transform="translate(40.042 -9736.678)"><path class="b" d="M87,510.5H296.346" transform="translate(-87 -406.78)"/><path class="b" d="M87,457.5H296.346" transform="translate(-87 -366.745)"/><path class="b" d="M87,404.5H296.346" transform="translate(-87 -326.71)"/><path class="b" d="M87,351.5H296.346" transform="translate(-87 -286.675)"/><path class="b" d="M87,299.5H296.346" transform="translate(-87 -247.395)"/><path class="b" d="M87,246.5H296.346" transform="translate(-87 -207.36)"/><path class="b" d="M87,193.5H296.346" transform="translate(-87 -167.325)"/><path class="b" d="M87,140.5H296.346" transform="translate(-87 -127.29)"/><path class="b" d="M87,86.5H296.346" transform="translate(-87 -86.5)"/></g><g class="c" transform="translate(40.042 -9633.081)"><path class="d" d="M152.5,510v2.446" transform="translate(-125.239 -510)"/><path class="d" d="M223.5,510v2.446" transform="translate(-166.689 -510)"/><path class="d" d="M295.5,510v2.446" transform="translate(-208.723 -510)"/><path class="d" d="M367.5,510v2.446" transform="translate(-250.757 -510)"/><path class="d" d="M439.5,510v2.446" transform="translate(-292.791 -510)"/><path class="d" d="M510.5,510v2.446" transform="translate(-334.242 -510)"/><path class="d" d="M582.5,510v2.446" transform="translate(-376.276 -510)"/><path class="d" d="M87,510.5H296.346" transform="translate(-87 -510.378)"/></g><g class="c" transform="translate(40.042 -9736.555)"><g class="e"><path class="f" d="M4.931,144.238l.163-.094.163-.072L5.422,144l.163-.072.163-.074.163-.071.163-.07.163-.071.163-.072.163-.07.163-.072.163-.073.163-.071.163-.073.163-.08.163-.074.163-.073.163-.07.163-.068.163-.071.163-.054.163-.069.163-.071.163-.068.163-.071.163-.069.163-.068.163-.063.163-.063.163-.058.163-.055.163-.055.163-.053.163-.047.163-.045.163-.06.163-.066.163-.068.163-.066.163-.067.163-.068.163-.068.163-.07.163-.068.163-.068.163-.066.163-.066.163-.068.163-.066.163-.067.163-.07.163-.072.163-.069.163-.068.163-.07.163-.068.163-.07.163-.067.163-.065.163-.064.163-.063.163-.065.163-.071.163-.07.163-.068.163-.066.163-.068.163-.065.163-.068.163-.069.163-.066.163-.066.163-.069.163-.069.163-.069.163-.067.163-.066.163-.066.163-.069.163-.067.163-.067.163-.068.163-.066.163-.067.163-.071.163-.07.163-.069.163-.067.163-.071.163-.068.163-.071.163-.072.163-.072.163-.073.163-.07.163-.071.163-.072.163-.071.163-.071.163-.069.163-.071.163-.07.163-.071.163-.072.163-.073.163-.073.163-.073.163-.073.163-.071.163-.072.163-.07.163-.069.163-.065.163-.069.163-.07.163-.071.163-.07.163-.068.163-.069.163-.072.163-.07.163-.071.163-.071.163-.071.163-.072.163-.067.163-.069.163-.069.163-.068.163-.069.163-.068.163-.073.163-.071.163-.07.163-.07.163-.072.163-.069.163-.07.163-.068.163-.069.163-.069.163-.069.163-.068.163-.069.163-.071.163-.071.163-.069.163-.07.163-.068.163-.069.163-.07.163-.069.163-.069.163-.07.163-.067.163-.071.163-.072.163-.071.163-.072.163-.071.163-.07.163-.072.163-.071.163-.07.163-.07.163-.067.163-.069.163-.069.163-.07.163-.068.163-.069.163-.069.163-.068.163-.068.163-.067.163-.068.163-.067.163-.07.163-.067.163-.07.163-.068.163-.069.163-.068.163-.068.163-.066.163-.069.163-.067.163-.071.163-.069.163-.069.163-.068.163-.069.163-.069.163-.068.163-.068.163-.068.163-.07.163-.068.163-.068.163-.068.163-.068.163-.066.163-.068.163-.069.163-.069.163-.069.163-.069.163-.068.163-.068.163-.069.163-.069.163-.068.163-.068.163-.065.163-.068.163-.069.163-.068.163-.067.163-.069.163-.066.163-.067.163-.067.163-.067.163-.069.163-.068.163-.068.163-.07.163-.068.163-.081.163-.081.163-.083.163-.081.163-.083.163-.082.163-.081.163-.082.163-.081.163-.083.163-.082.163-.083.163-.082.163-.081.163-.081.164-.082.164-.081.163-.082.164-.08.163-.082.164-.083.164-.082.163-.081.164-.08.164-.083.163-.08.164-.082.163-.08.164-.081.164-.081.163-.081.164-.082.164-.081.163-.081.164-.082.163-.081.164-.082.164-.081.163-.082.164-.082.164-.081.163-.083.164-.081.163-.082.164-.082.164-.082.163-.082.164-.08.164-.083.163-.082.164-.081.163-.082.164-.082.164-.082.163-.082.164-.082.164-.082.163-.081.164-.083.163-.083.164-.082.164-.082.163-.081.164-.083.164-.084.163-.083.164-.083.163-.082.164-.083.164-.083.163-.083.164-.084.164-.083.163-.083.164-.084.163-.083.164-.083.164-.081.163-.083.164-.083.164-.084.163-.083.164-.082.163-.084.164-.083.164-.083.163-.083.164-.081.164-.084.163-.083.164-.083.163-.083.164-.082.164-.083.163-.086.164-.089.164-.086.163-.082.164-.083.163-.085.164-.083.164-.082.163-.082.164-.084.164-.083.163-.083.164-.082.163-.083L60,119.6l.164-.083.163-.083.164-.083.164-.081.163-.084.164-.082.163-.083.164-.085.164-.083.163-.083.164-.082.164-.083.163-.082.164-.082.163-.083.164-.082.164-.084.163-.082.164-.083.164-.085.163-.082.164-.084.163-.081.164-.083.164-.08.163-.085.164-.084.164-.083.163-.082.164-.083.163-.082.164-.081.164-.082.163-.085.164-.083.164-.082.163-.083.164-.083.163-.083.164-.084.164-.083.163-.083.164-.083.164-.083.163-.083.164-.083.163-.083.164-.085.164-.082.163-.083.164-.085.164-.083.163-.083.164-.083.163-.083.164-.082.164-.083.163-.083.164-.083.164-.082.163-.083.164-.082.163-.084.164-.081.164-.082.163-.083.164-.082.164-.083.163-.083.164-.083.163-.082.164-.084.164-.083.163-.083.164-.084.164-.083.163-.083.164-.083.163-.077.164-.089.164-.084.163-.083.164-.082.164-.089.163-.086.164-.089.163-.083.164-.091.164-.083.163-.084.164-.082.164-.089.163-.092.164-.086.163-.083.164-.086.164-.085.163-.095.164-.093.164-.086.163-.086.164-.084.163-.086.164-.09.164-.085.163-.083.164-.085.164-.084.163-.086.164-.086.163-.089.164-.083.164-.082.163-.081.164-.083.164-.082.163-.083.164-.081.163-.08.164-.077.164-.083.163-.083.164-.079.164-.081.163-.081.164-.08.163-.081.164-.082.164-.086.163-.084.164-.08.164-.081.163-.081.164-.083.163-.084.164-.081.164-.083.163-.082.164-.08.164-.086.163-.084.164-.084.163-.082.164-.081.164-.084.163-.084.164-.087.164-.084.163-.087.164-.088.163-.085.164-.082L85,106.82l.163-.082.164-.083.164-.081.163-.081.164-.083.163-.082.164-.083.164-.082.163-.082.164-.082.164-.081.163-.082.164-.082.163-.081.164-.082.164-.083.163-.082.164-.081.164-.082.163-.082.164-.08.163-.081.164-.081.164-.083.163-.082.164-.081.164-.082.163-.082.164-.082.163-.081.164-.082.164-.081.163-.081.164-.083.164-.082.163-.081.164-.082.163-.082.164-.082.164-.081.163-.082.164-.082.164-.082.163-.081.164-.082.163-.082.164-.081.164-.082.163-.083.164-.08.164-.081.163-.082.164-.081.163-.081.164-.081.164-.082.163-.08.164-.081.164-.081.163-.082.164-.081.163-.081.164-.081.164-.081.163-.082.164-.082.164-.082.163-.081.164-.082.163-.081.164-.081.164-.082.163-.082.164-.082.164-.081.163-.082.164-.081.163-.081.164-.081.164-.081.163-.081.164-.081.164-.08.163-.081.164-.081.163-.081.164-.082.164-.081.163-.082.164-.081.164-.082.163-.081.164-.081.163-.082.164-.08.164-.08.163-.081.164-.08.164-.08.163-.081.164-.08.163-.082.164-.081.164-.081.163-.081.164-.082.164-.081.163-.08.164-.082.164-.08.163-.081.164-.08.163-.08.164-.08.164-.081.163-.08.164-.079.163-.081.164-.08.164-.081.163-.08.164-.079.164-.08.163-.08.164-.081.163-.08.164-.08.164-.08.163-.078.164-.078.164-.079.163-.078.164-.078.164-.08.163-.078.164-.079.163-.079.164-.079.164-.077.163-.079.164-.079.163-.078.164-.079.164-.077.163-.08.164-.076.164-.076.163-.077.164-.076.164-.076.163-.076.164-.076L110,94.47l.164-.076.164-.077.163-.077.164-.077.164-.076.163-.077.164-.077.163-.077.164-.077.164-.076.163-.073.164-.074.163-.074.164-.072.164-.074.163-.074.164-.074.164-.074.163-.074.164-.074.164-.074.163-.075.164-.075.163-.074.164-.075.164-.077.163-.077.164-.074.164-.073.163-.069.164-.071.163-.07.164-.072.164-.071.163-.072.164-.071.164-.071.163-.073.164-.072.163-.073.164-.073.164-.073.163-.073.164-.073.164-.073.163-.074.164-.074.163-.069.164-.068.164-.069.163-.068.164-.068.164-.068.163-.069.164-.069.163-.069.164-.07.164-.069.163-.069.164-.069.164-.07.163-.071.164-.069.163-.069.164-.071.164-.07.163-.07.164-.063.164-.062.163-.062.164-.061.163-.062.164-.062.164-.062.163-.061.164-.062.164-.063.163-.063.164-.062.163-.063.164-.063.164-.062.163-.064.164-.063.164-.063.163-.064.164-.063.163-.064.164-.062.164-.056.163-.055.164-.054.164-.055.163-.055.164-.055.163-.056.164-.056.164-.056.163-.056.164-.057.164-.057.163-.057.164-.057.163-.057.164-.058.164-.058.163-.058.164-.058.164-.057.163-.059.164-.058.163-.058.164-.058.164-.049.163-.048.164-.048.164-.048.163-.049.164-.049.163-.049.164-.049.164-.049.163-.048.164-.049.164-.049.163-.049.164-.049.163-.05.164-.049.164-.049.163-.049.164-.05.164-.049.163-.05.164-.051.163-.05.164-.05.164-.049.163-.05.164-.05.164-.05.163-.041.164-.039.163-.04.164-.039.164-.039.163-.04.164-.039.164-.038.163-.039.164-.039.163-.039.164-.039.164-.04.163-.04.164-.039.164-.039.163-.039.164-.039.163-.04.164-.04.164-.04.163-.04.164-.04.164-.04.163-.042.164-.052.163-.053.164-.053.164-.053.163-.052.164-.053.164-.053.163-.053.164-.052.163-.052.164-.053.164-.053.163-.052.164-.052.164-.053.163-.052.164-.053.163-.052.164-.052.164-.053.163-.052.164-.053.164-.052.163-.053.164-.053.163-.053.164-.052.164-.053.163-.052.164-.053.164-.052.163-.053.164-.053.163-.053.164-.053.164-.053.163-.053.164-.053.164-.053.163-.052.164-.053.163-.052.164-.053.164-.053.163-.053.164-.053.164-.052.163-.053.164-.053.163-.053.164-.054.164-.054.163-.053.164-.053.164-.053.163-.053.164-.053.163-.053.164-.054.164-.054.163-.053.164-.053.164-.053.163-.053.164-.053.163-.053.164-.053.164-.054.163-.053.164-.053.164-.053.163-.053.164-.053.163-.053.164-.053.164-.053.163-.054.164-.053.164-.053.163-.054.164-.054.163-.054.164-.055.164-.053.163-.054.164-.055.164-.055.163-.054.164-.054.163-.054.164-.053.164-.054.163-.054.164-.053.164-.053.163-.054.164-.053.163-.053.164-.053.164-.053.163-.053.164-.053.164-.053.163-.053.164-.053.163-.053.164-.053.164-.053.163-.053.164-.053.164-.053.163-.053.164-.053.163-.053.164-.053.164-.052.163-.054.164-.052.164-.053.163-.053.164-.052.163-.053.164-.053.164-.053.163-.053.164-.053.164-.053.163-.054.164-.053.163-.054.164-.053.164-.052.163-.053.164-.053.164-.053.163-.053.164-.054.163-.053.164-.052.164-.053.163-.053.164-.053.164-.053.163-.053.164-.053.163-.053.164-.053.164-.053.163-.053.164-.053.164-.053.163-.053.164-.053.163-.053.164-.053.164-.052.163-.053.164-.052.164-.053.163-.053.164-.053.163-.052.164-.053.164-.053.163-.053.164-.053.164-.052.163-.053.164-.053.163-.053.164-.053.164-.053.163-.052.164-.053.164-.053.163-.053.164-.052.163-.052.164-.053.164-.053.163-.053.164-.053.164-.053.163-.053.164-.053.163-.053.164-.053.164-.053.163-.053.164-.053.164-.053.163-.054.164-.053.163-.052.164-.054.164-.053.163-.053.164-.054.164-.053.163-.053.164-.054.163-.053.164-.054.164-.053.163-.053.164-.053.164-.053.163-.053.164-.053.163-.053.164-.053.164-.053.163-.053.164-.054.164-.054.163-.053.164-.054.163-.053.164-.054.164-.053.163-.054.164-.054.164-.053.163-.053.164-.054.163-.053.164-.054.164-.053.163-.054.164-.053.164-.054.163-.053.164-.053.163-.054.164-.054.164-.054.163-.053.164-.054.164-.053.163-.053.164-.053.163-.053.164-.053L177,71.57l.163-.053.164-.053.164-.053.163-.053.164-.054.163-.053.164-.053.164-.053.163-.053.164-.053.164-.053.163-.053.164-.053.163-.053.164-.053.164-.053.163-.053.164-.053.164-.053.163-.053.164-.053.163-.053.164-.053.164-.053.163-.053.164-.052.164-.053.163-.053.164-.053.163-.054.164-.053.164-.053.163-.052.164-.053.164-.054.163-.053.164-.053.163-.054.164-.053.164-.053.163-.053.164-.053.164-.053.163-.053.164-.053.163-.053.164-.053.164-.053.163-.053.164-.053.164-.053.163-.053.164-.053.163-.053.164-.053.164-.053.163-.053.164-.053.164-.053.163-.053.164-.053.163-.053.164-.053.164-.053.163-.053.164-.053.164-.053.163-.054.164-.053.163-.053.164-.053.164-.053.163-.052.164-.053.164-.053.163-.053.164-.053.163-.053.164-.053.164-.053.163-.053.164-.052.164-.052.163-.052.164-.053.163-.052.164-.053.164-.053.163-.053.164-.053.164-.053.163-.053.164-.052.163-.053.164-.053.164-.054.163-.053.164-.053.164-.053.163-.053.164-.053.163-.053.164-.053.164-.052.163-.053.164-.053.164-.053.163-.052.164-.053.163-.052.164-.053.164-.053.163-.053.164-.053.164-.053.163-.053.164-.053.163-.053.164-.053.164-.053.163-.053.164-.053.164-.053.163-.052.164-.053.163-.053.164-.052.164-.053.163-.053.164-.052.164-.053.163-.052.164-.053.163-.053.164-.052.164-.053.163-.052.164-.052.164-.052.163-.052.164-.053.163-.052.164-.053.164-.052.163-.052.164-.053.164-.053.163-.053.164-.052.163-.052.164-.052.164-.052.163-.052.164-.052.164-.052.163-.052.164-.052.163-.052.164-.052.164-.052.163-.052.164-.052.164-.051.163-.051.164-.052.164-.052.163-.051.164-.051.163-.051.164-.051.164-.051.163-.051.164-.05.163-.051.164-.051.164-.052.163-.05.164-.051.164-.051.163-.051.164-.05.163-.051.164-.049.164-.049.163-.049.164-.049.164-.049.163-.049.164-.049.164-.049.163-.049.164-.05.163-.049.164-.049.164-.05.163-.049.164-.049.163-.048.164-.049.164-.046.163-.046.164-.047.164-.046v88.558H4.931" transform="translate(-2.879 -46.064)"/><path class="g" d="M4.931,144.238l.163-.094.163-.072L5.422,144l.163-.072.163-.074.163-.071.163-.07.163-.071.163-.072.163-.07.163-.072.163-.073.163-.071.163-.073.163-.08.163-.074.163-.073.163-.07.163-.068.163-.071.163-.054.163-.069.163-.071.163-.068.163-.071.163-.069.163-.068.163-.063.163-.063.163-.058.163-.055.163-.055.163-.053.163-.047.163-.045.163-.06.163-.066.163-.068.163-.066.163-.067.163-.068.163-.068.163-.07.163-.068.163-.068.163-.066.163-.066.163-.068.163-.066.163-.067.163-.07.163-.072.163-.069.163-.068.163-.07.163-.068.163-.07.163-.067.163-.065.163-.064.163-.063.163-.065.163-.071.163-.07.163-.068.163-.066.163-.068.163-.065.163-.068.163-.069.163-.066.163-.066.163-.069.163-.069.163-.069.163-.067.163-.066.163-.066.163-.069.163-.067.163-.067.163-.068.163-.066.163-.067.163-.071.163-.07.163-.069.163-.067.163-.071.163-.068.163-.071.163-.072.163-.072.163-.073.163-.07.163-.071.163-.072.163-.071.163-.071.163-.069.163-.071.163-.07.163-.071.163-.072.163-.073.163-.073.163-.073.163-.073.163-.071.163-.072.163-.07.163-.069.163-.065.163-.069.163-.07.163-.071.163-.07.163-.068.163-.069.163-.072.163-.07.163-.071.163-.071.163-.071.163-.072.163-.067.163-.069.163-.069.163-.068.163-.069.163-.068.163-.073.163-.071.163-.07.163-.07.163-.072.163-.069.163-.07.163-.068.163-.069.163-.069.163-.069.163-.068.163-.069.163-.071.163-.071.163-.069.163-.07.163-.068.163-.069.163-.07.163-.069.163-.069.163-.07.163-.067.163-.071.163-.072.163-.071.163-.072.163-.071.163-.07.163-.072.163-.071.163-.07.163-.07.163-.067.163-.069.163-.069.163-.07.163-.068.163-.069.163-.069.163-.068.163-.068.163-.067.163-.068.163-.067.163-.07.163-.067.163-.07.163-.068.163-.069.163-.068.163-.068.163-.066.163-.069.163-.067.163-.071.163-.069.163-.069.163-.068.163-.069.163-.069.163-.068.163-.068.163-.068.163-.07.163-.068.163-.068.163-.068.163-.068.163-.066.163-.068.163-.069.163-.069.163-.069.163-.069.163-.068.163-.068.163-.069.163-.069.163-.068.163-.068.163-.065.163-.068.163-.069.163-.068.163-.067.163-.069.163-.066.163-.067.163-.067.163-.067.163-.069.163-.068.163-.068.163-.07.163-.068.163-.081.163-.081.163-.083.163-.081.163-.083.163-.082.163-.081.163-.082.163-.081.163-.083.163-.082.163-.083.163-.082.163-.081.163-.081.164-.082.164-.081.163-.082.164-.08.163-.082.164-.083.164-.082.163-.081.164-.08.164-.083.163-.08.164-.082.163-.08.164-.081.164-.081.163-.081.164-.082.164-.081.163-.081.164-.082.163-.081.164-.082.164-.081.163-.082.164-.082.164-.081.163-.083.164-.081.163-.082.164-.082.164-.082.163-.082.164-.08.164-.083.163-.082.164-.081.163-.082.164-.082.164-.082.163-.082.164-.082.164-.082.163-.081.164-.083.163-.083.164-.082.164-.082.163-.081.164-.083.164-.084.163-.083.164-.083.163-.082.164-.083.164-.083.163-.083.164-.084.164-.083.163-.083.164-.084.163-.083.164-.083.164-.081.163-.083.164-.083.164-.084.163-.083.164-.082.163-.084.164-.083.164-.083.163-.083.164-.081.164-.084.163-.083.164-.083.163-.083.164-.082.164-.083.163-.086.164-.089.164-.086.163-.082.164-.083.163-.085.164-.083.164-.082.163-.082.164-.084.164-.083.163-.083.164-.082.163-.083L60,119.6l.164-.083.163-.083.164-.083.164-.081.163-.084.164-.082.163-.083.164-.085.164-.083.163-.083.164-.082.164-.083.163-.082.164-.082.163-.083.164-.082.164-.084.163-.082.164-.083.164-.085.163-.082.164-.084.163-.081.164-.083.164-.08.163-.085.164-.084.164-.083.163-.082.164-.083.163-.082.164-.081.164-.082.163-.085.164-.083.164-.082.163-.083.164-.083.163-.083.164-.084.164-.083.163-.083.164-.083.164-.083.163-.083.164-.083.163-.083.164-.085.164-.082.163-.083.164-.085.164-.083.163-.083.164-.083.163-.083.164-.082.164-.083.163-.083.164-.083.164-.082.163-.083.164-.082.163-.084.164-.081.164-.082.163-.083.164-.082.164-.083.163-.083.164-.083.163-.082.164-.084.164-.083.163-.083.164-.084.164-.083.163-.083.164-.083.163-.077.164-.089.164-.084.163-.083.164-.082.164-.089.163-.086.164-.089.163-.083.164-.091.164-.083.163-.084.164-.082.164-.089.163-.092.164-.086.163-.083.164-.086.164-.085.163-.095.164-.093.164-.086.163-.086.164-.084.163-.086.164-.09.164-.085.163-.083.164-.085.164-.084.163-.086.164-.086.163-.089.164-.083.164-.082.163-.081.164-.083.164-.082.163-.083.164-.081.163-.08.164-.077.164-.083.163-.083.164-.079.164-.081.163-.081.164-.08.163-.081.164-.082.164-.086.163-.084.164-.08.164-.081.163-.081.164-.083.163-.084.164-.081.164-.083.163-.082.164-.08.164-.086.163-.084.164-.084.163-.082.164-.081.164-.084.163-.084.164-.087.164-.084.163-.087.164-.088.163-.085.164-.082L85,106.82l.163-.082.164-.083.164-.081.163-.081.164-.083.163-.082.164-.083.164-.082.163-.082.164-.082.164-.081.163-.082.164-.082.163-.081.164-.082.164-.083.163-.082.164-.081.164-.082.163-.082.164-.08.163-.081.164-.081.164-.083.163-.082.164-.081.164-.082.163-.082.164-.082.163-.081.164-.082.164-.081.163-.081.164-.083.164-.082.163-.081.164-.082.163-.082.164-.082.164-.081.163-.082.164-.082.164-.082.163-.081.164-.082.163-.082.164-.081.164-.082.163-.083.164-.08.164-.081.163-.082.164-.081.163-.081.164-.081.164-.082.163-.08.164-.081.164-.081.163-.082.164-.081.163-.081.164-.081.164-.081.163-.082.164-.082.164-.082.163-.081.164-.082.163-.081.164-.081.164-.082.163-.082.164-.082.164-.081.163-.082.164-.081.163-.081.164-.081.164-.081.163-.081.164-.081.164-.08.163-.081.164-.081.163-.081.164-.082.164-.081.163-.082.164-.081.164-.082.163-.081.164-.081.163-.082.164-.08.164-.08.163-.081.164-.08.164-.08.163-.081.164-.08.163-.082.164-.081.164-.081.163-.081.164-.082.164-.081.163-.08.164-.082.164-.08.163-.081.164-.08.163-.08.164-.08.164-.081.163-.08.164-.079.163-.081.164-.08.164-.081.163-.08.164-.079.164-.08.163-.08.164-.081.163-.08.164-.08.164-.08.163-.078.164-.078.164-.079.163-.078.164-.078.164-.08.163-.078.164-.079.163-.079.164-.079.164-.077.163-.079.164-.079.163-.078.164-.079.164-.077.163-.08.164-.076.164-.076.163-.077.164-.076.164-.076.163-.076.164-.076L110,94.47l.164-.076.164-.077.163-.077.164-.077.164-.076.163-.077.164-.077.163-.077.164-.077.164-.076.163-.073.164-.074.163-.074.164-.072.164-.074.163-.074.164-.074.164-.074.163-.074.164-.074.164-.074.163-.075.164-.075.163-.074.164-.075.164-.077.163-.077.164-.074.164-.073.163-.069.164-.071.163-.07.164-.072.164-.071.163-.072.164-.071.164-.071.163-.073.164-.072.163-.073.164-.073.164-.073.163-.073.164-.073.164-.073.163-.074.164-.074.163-.069.164-.068.164-.069.163-.068.164-.068.164-.068.163-.069.164-.069.163-.069.164-.07.164-.069.163-.069.164-.069.164-.07.163-.071.164-.069.163-.069.164-.071.164-.07.163-.07.164-.063.164-.062.163-.062.164-.061.163-.062.164-.062.164-.062.163-.061.164-.062.164-.063.163-.063.164-.062.163-.063.164-.063.164-.062.163-.064.164-.063.164-.063.163-.064.164-.063.163-.064.164-.062.164-.056.163-.055.164-.054.164-.055.163-.055.164-.055.163-.056.164-.056.164-.056.163-.056.164-.057.164-.057.163-.057.164-.057.163-.057.164-.058.164-.058.163-.058.164-.058.164-.057.163-.059.164-.058.163-.058.164-.058.164-.049.163-.048.164-.048.164-.048.163-.049.164-.049.163-.049.164-.049.164-.049.163-.048.164-.049.164-.049.163-.049.164-.049.163-.05.164-.049.164-.049.163-.049.164-.05.164-.049.163-.05.164-.051.163-.05.164-.05.164-.049.163-.05.164-.05.164-.05.163-.041.164-.039.163-.04.164-.039.164-.039.163-.04.164-.039.164-.038.163-.039.164-.039.163-.039.164-.039.164-.04.163-.04.164-.039.164-.039.163-.039.164-.039.163-.04.164-.04.164-.04.163-.04.164-.04.164-.04.163-.042.164-.052.163-.053.164-.053.164-.053.163-.052.164-.053.164-.053.163-.053.164-.052.163-.052.164-.053.164-.053.163-.052.164-.052.164-.053.163-.052.164-.053.163-.052.164-.052.164-.053.163-.052.164-.053.164-.052.163-.053.164-.053.163-.053.164-.052.164-.053.163-.052.164-.053.164-.052.163-.053.164-.053.163-.053.164-.053.164-.053.163-.053.164-.053.164-.053.163-.052.164-.053.163-.052.164-.053.164-.053.163-.053.164-.053.164-.052.163-.053.164-.053.163-.053.164-.054.164-.054.163-.053.164-.053.164-.053.163-.053.164-.053.163-.053.164-.054.164-.054.163-.053.164-.053.164-.053.163-.053.164-.053.163-.053.164-.053.164-.054.163-.053.164-.053.164-.053.163-.053.164-.053.163-.053.164-.053.164-.053.163-.054.164-.053.164-.053.163-.054.164-.054.163-.054.164-.055.164-.053.163-.054.164-.055.164-.055.163-.054.164-.054.163-.054.164-.053.164-.054.163-.054.164-.053.164-.053.163-.054.164-.053.163-.053.164-.053.164-.053.163-.053.164-.053.164-.053.163-.053.164-.053.163-.053.164-.053.164-.053.163-.053.164-.053.164-.053.163-.053.164-.053.163-.053.164-.053.164-.052.163-.054.164-.052.164-.053.163-.053.164-.052.163-.053.164-.053.164-.053.163-.053.164-.053.164-.053.163-.054.164-.053.163-.054.164-.053.164-.052.163-.053.164-.053.164-.053.163-.053.164-.054.163-.053.164-.052.164-.053.163-.053.164-.053.164-.053.163-.053.164-.053.163-.053.164-.053.164-.053.163-.053.164-.053.164-.053.163-.053.164-.053.163-.053.164-.053.164-.052.163-.053.164-.052.164-.053.163-.053.164-.053.163-.052.164-.053.164-.053.163-.053.164-.053.164-.052.163-.053.164-.053.163-.053.164-.053.164-.053.163-.052.164-.053.164-.053.163-.053.164-.052.163-.052.164-.053.164-.053.163-.053.164-.053.164-.053.163-.053.164-.053.163-.053.164-.053.164-.053.163-.053.164-.053.164-.053.163-.054.164-.053.163-.052.164-.054.164-.053.163-.053.164-.054.164-.053.163-.053.164-.054.163-.053.164-.054.164-.053.163-.053.164-.053.164-.053.163-.053.164-.053.163-.053.164-.053.164-.053.163-.053.164-.054.164-.054.163-.053.164-.054.163-.053.164-.054.164-.053.163-.054.164-.054.164-.053.163-.053.164-.054.163-.053.164-.054.164-.053.163-.054.164-.053.164-.054.163-.053.164-.053.163-.054.164-.054.164-.054.163-.053.164-.054.164-.053.163-.053.164-.053.163-.053.164-.053L177,71.57l.163-.053.164-.053.164-.053.163-.053.164-.054.163-.053.164-.053.164-.053.163-.053.164-.053.164-.053.163-.053.164-.053.163-.053.164-.053.164-.053.163-.053.164-.053.164-.053.163-.053.164-.053.163-.053.164-.053.164-.053.163-.053.164-.052.164-.053.163-.053.164-.053.163-.054.164-.053.164-.053.163-.052.164-.053.164-.054.163-.053.164-.053.163-.054.164-.053.164-.053.163-.053.164-.053.164-.053.163-.053.164-.053.163-.053.164-.053.164-.053.163-.053.164-.053.164-.053.163-.053.164-.053.163-.053.164-.053.164-.053.163-.053.164-.053.164-.053.163-.053.164-.053.163-.053.164-.053.164-.053.163-.053.164-.053.164-.053.163-.054.164-.053.163-.053.164-.053.164-.053.163-.052.164-.053.164-.053.163-.053.164-.053.163-.053.164-.053.164-.053.163-.053.164-.052.164-.052.163-.052.164-.053.163-.052.164-.053.164-.053.163-.053.164-.053.164-.053.163-.053.164-.052.163-.053.164-.053.164-.054.163-.053.164-.053.164-.053.163-.053.164-.053.163-.053.164-.053.164-.052.163-.053.164-.053.164-.053.163-.052.164-.053.163-.052.164-.053.164-.053.163-.053.164-.053.164-.053.163-.053.164-.053.163-.053.164-.053.164-.053.163-.053.164-.053.164-.053.163-.052.164-.053.163-.053.164-.052.164-.053.163-.053.164-.052.164-.053.163-.052.164-.053.163-.053.164-.052.164-.053.163-.052.164-.052.164-.052.163-.052.164-.053.163-.052.164-.053.164-.052.163-.052.164-.053.164-.053.163-.053.164-.052.163-.052.164-.052.164-.052.163-.052.164-.052.164-.052.163-.052.164-.052.163-.052.164-.052.164-.052.163-.052.164-.052.164-.051.163-.051.164-.052.164-.052.163-.051.164-.051.163-.051.164-.051.164-.051.163-.051.164-.05.163-.051.164-.051.164-.052.163-.05.164-.051.164-.051.163-.051.164-.05.163-.051.164-.049.164-.049.163-.049.164-.049.164-.049.163-.049.164-.049.164-.049.163-.049.164-.05.163-.049.164-.049.164-.05.163-.049.164-.049.163-.048.164-.049.164-.046.163-.046.164-.047.164-.046" transform="translate(-2.879 -46.064)"/></g></g><g transform="translate(57.931 -9632.854)"><text class="a" transform="translate(10 6)"><tspan x="-4.92" y="0">Jan &apos;16</tspan></text><text class="a" transform="translate(39.573 6)"><tspan x="-4.448" y="0">Jul &apos;16</tspan></text><text class="a" transform="translate(69.807 6)"><tspan x="-4.92" y="0">Jan &apos;17</tspan></text><text class="a" transform="translate(99.217 6)"><tspan x="-4.448" y="0">Jul &apos;17</tspan></text><text class="a" transform="translate(129.452 6)"><tspan x="-4.92" y="0">Jan &apos;18</tspan></text><text class="a" transform="translate(159.861 6)"><tspan x="-4.448" y="0">Jul &apos;18</tspan></text><text class="a" transform="translate(191.474 6)"><tspan x="-9.84" y="0">Jan &apos;19</tspan></text></g><g transform="translate(30.897 -9740.218)"><text class="a" transform="translate(6.497 108.326)"><tspan x="-6.783" y="0">70 M</tspan></text><text class="a" transform="translate(6.497 95.004)"><tspan x="-6.783" y="0">75 M</tspan></text><text class="a" transform="translate(6.497 81.682)"><tspan x="-6.783" y="0">80 M</tspan></text><text class="a" transform="translate(6.497 69.359)"><tspan x="-6.783" y="0">85 M</tspan></text><text class="a" transform="translate(6.497 56.037)"><tspan x="-6.783" y="0">90 M</tspan></text><text class="a" transform="translate(6.497 43.715)"><tspan x="-6.783" y="0">95 M</tspan></text><text class="a" transform="translate(6 30.393)"><tspan x="-8.451" y="0">100 M</tspan></text><text class="a" transform="translate(6 17.322)"><tspan x="-8.451" y="0">105 M</tspan></text><text class="a" transform="translate(6 4)"><tspan x="-8.451" y="0">110 M</tspan></text></g></g></svg>