<svg xmlns="http://www.w3.org/2000/svg" viewBox="0 0 168.003 104.896"><defs><style>.a{fill:#dadde1;}.a,.b,.c,.d,.e,.f,.g,.h,.i,.j,.k,.l,.m,.n,.o,.p,.q,.r,.s,.t,.u,.v,.w,.x{stroke:#fff;stroke-linejoin:round;}.b{fill:#545454;}.c{fill:#777a77;}.d{fill:#d8d4d1;}.e{fill:#8c8c8e;}.f{fill:#dcdada;}.g{fill:#5b5b5b;}.h{fill:#999a9a;}.i{fill:#676666;}.j{fill:#dddfdf;}.k{fill:#8f8f8f;}.l{fill:#434348;}.m{fill:#b1b4b1;}.n{fill:#636160;}.o{fill:#cfd0d6;}.p{fill:#777676;}.q{fill:#a4a3a1;}.r{fill:#2b908f;}.s{fill:#f45b5b;}.t{fill:#91e8e1;}.u{fill:#7cb5ec;}.v{fill:#90ed7d;}.w{fill:#f7a35c;}.x{fill:#8085e9;}.y{fill:none;stroke:#bbbfc4;}.z{fill:#77838f;font-size:3px;font-family:HelveticaNeue, Helvetica Neue;}</style></defs><g transform="translate(-94.148 -61.558)"><g transform="translate(151.024 81.648)"><path class="a" d="M360.986,93a36.711,36.711,0,0,1,35.957,44.148l-9.9-2.048a26.6,26.6,0,0,0-26.056-31.991Z" transform="translate(-324.282 -93)"/><path class="b" d="M393.519,174.236a36.711,36.711,0,0,1-39.833,29.031l1.072-10.052a26.6,26.6,0,0,0,28.865-21.037Z" transform="translate(-320.866 -130.052)"/><path class="c" d="M330.562,211.858a36.711,36.711,0,0,1-26.213-15.542l8.3-5.771a26.6,26.6,0,0,0,18.994,11.262Z" transform="translate(-297.779 -138.647)"/><path class="d" d="M298.549,178.793a36.711,36.711,0,0,1-6.247-25.629l10.026,1.294a26.6,26.6,0,0,0,4.527,18.572Z" transform="translate(-292 -121.154)"/><path class="e" d="M292.577,141.012a36.711,36.711,0,0,1,4.681-13.739l8.735,5.087a26.6,26.6,0,0,0-3.392,9.956Z" transform="translate(-292.27 -109.038)"/><path class="f" d="M301.411,123.992a36.706,36.706,0,0,1,2.444-3.662l8.057,6.1a26.593,26.593,0,0,0-1.771,2.654Z" transform="translate(-296.404 -105.789)"/><path class="g" d="M306.045,117.971q1.033-1.36,2.188-2.619l7.449,6.834q-.837.911-1.585,1.9Z" transform="translate(-298.572 -103.46)"/><path class="h" d="M310.2,113.3q1.094-1.189,2.288-2.279l6.812,7.469q-.865.789-1.658,1.651Z" transform="translate(-300.519 -101.431)"/><path class="i" d="M314.556,109.271q1.113-1.013,2.307-1.933l6.169,8.008q-.864.666-1.672,1.4Z" transform="translate(-302.555 -99.71)"/><path class="j" d="M318.947,105.894q1.091-.839,2.244-1.595l5.543,8.454q-.834.547-1.626,1.155Z" transform="translate(-304.61 -98.287)"/><path class="k" d="M323.222,103.091q1.075-.7,2.2-1.331l4.929,8.826q-.813.454-1.593.964Z" transform="translate(-306.611 -97.099)"/><path class="l" d="M327.413,100.765q1.042-.581,2.121-1.093l4.337,9.131q-.781.371-1.537.792Z" transform="translate(-308.572 -96.122)"/><path class="m" d="M331.461,98.878q.979-.464,1.983-.869l3.782,9.375q-.728.293-1.438.629Z" transform="translate(-310.466 -95.344)"/><path class="n" d="M335.253,97.346q.971-.39,1.963-.725l3.232,9.578q-.718.242-1.422.525Z" transform="translate(-312.24 -94.694)"/><path class="o" d="M339.008,96.105q.9-.3,1.824-.561l2.719,9.736q-.666.186-1.322.407Z" transform="translate(-313.998 -94.19)"/><path class="p" d="M342.5,95.249q.6-.167,1.208-.314l2.377,9.825q-.44.106-.876.228Z" transform="translate(-315.633 -93.906)"/><path class="q" d="M344.841,94.68q.607-.146,1.218-.272l2.032,9.9q-.443.091-.883.2Z" transform="translate(-316.727 -93.659)"/><path class="r" d="M347.2,94.215q.54-.11,1.082-.2L350,103.972q-.393.068-.784.148Z" transform="translate(-317.83 -93.473)"/><path class="s" d="M349.3,93.858q.506-.087,1.015-.16L351.75,103.7q-.369.053-.736.116Z" transform="translate(-318.814 -93.327)"/><path class="t" d="M351.277,93.577q.49-.07.983-.126l1.154,10.043q-.357.041-.712.092Z" transform="translate(-319.739 -93.211)"/><path class="u" d="M353.193,93.359q.474-.054.95-.1l.882,10.07q-.344.03-.688.069Z" transform="translate(-320.636 -93.123)"/><path class="l" d="M355.047,93.2q.439-.038.878-.065l.63,10.089q-.319.02-.637.047Z" transform="translate(-321.503 -93.063)"/><path class="v" d="M356.767,93.1q.385-.024.77-.039l.408,10.1q-.279.011-.558.028Z" transform="translate(-322.308 -93.026)"/><path class="w" d="M358.283,93.035q.367-.014.734-.022l.2,10.107q-.266.005-.532.016Z" transform="translate(-323.018 -93.006)"/><path class="x" d="M359.731,93.006q.312-.006.624-.006l.014,10.109q-.226,0-.452,0Z" transform="translate(-323.695 -93)"/></g><g transform="translate(45.148 63.558)"><path class="y" d="M429.077,99.039c-2.66,0-10.09,6.042-12.567,8.056l-2.477,2.014" transform="translate(-243.231 -77.737)"/><path class="y" d="M413.169,230.185c-2.66,0-8.3-7.742-10.176-10.323l-1.879-2.581" transform="translate(-237.185 -133.069)"/><path class="y" d="M304.968,234.561c2.66,0,7.549-8.235,9.178-10.981l1.629-2.745" transform="translate(-192.192 -134.732)"/><path class="y" d="M267.318,193.075c2.66,0,7.7-13.754,10.8-14.509l3.1-.754" transform="translate(-174.574 -114.599)"/><path class="y" d="M258.753,161.311c2.66,0,13.347-25.09,16.369-24.059l3.021,1.031" transform="translate(-170.566 -95.604)"/><path class="y" d="M256.545,140.309c2.66,0,19.482-22.356,22.136-20.581l2.654,1.774" transform="translate(-169.532 -87.371)"/><path class="y" d="M260.253,124.424c2.66,0,20.284-13.29,22.733-11.242l2.448,2.048" transform="translate(-171.267 -84.255)"/><path class="y" d="M270.647,108.8c2.66,0,17.415-3.422,19.666-1.158l2.251,2.264" transform="translate(-176.131 -81.4)"/><path class="y" d="M290.878,86.5c2.66,0,9.38,6.857,11.429,9.3l2.049,2.448" transform="translate(-185.599 -71.869)"/><path class="y" d="M298.17,62.5c2.66,0,8.206,17.538,10.055,20.14l1.849,2.6" transform="translate(-189.011 -60.638)"/><g transform="translate(191.003 19.153)"><text class="z" transform="translate(-4 3)"><tspan x="0" y="0">Ethermine (27.4234%)</tspan></text></g><g transform="translate(176.426 96.235)"><text class="z" transform="translate(0 3)"><tspan x="0" y="0">SparkPool (22.7318%)</tspan></text></g><g transform="translate(43.627 97.896)"><text class="z" transform="translate(39 4)"><tspan x="0" y="0">Nanopool (13.2435%)</tspan></text></g><g transform="translate(25.538 76.614)"><text class="z" transform="translate(39 5)"><tspan x="0" y="0">F2Pool_2 (11.3512%)</tspan></text></g><g transform="translate(0 63.845)"><text class="z" transform="translate(49 5)"><tspan x="0" y="0">MiningPoolHub_1 (6.1731%)</tspan></text></g><g transform="translate(54.301 52.076)"><text class="z" transform="translate(0 3)"><tspan x="0" y="0">DwarfPool_1 (1.8703%)</tspan></text></g><g transform="translate(43.627 38.307)"><text class="z" transform="translate(26 3)"><tspan x="0" y="0">bw (1.4473%)</tspan></text></g><g transform="translate(23.41 25.538)"><text class="z" transform="translate(39 2)"><tspan x="0" y="0">PandaMiner (1.3740%)</tspan></text></g><g transform="translate(40.371 12.769)"><text class="z" transform="translate(36 1)"><tspan x="0" y="0">Ethpool_2 (1.2737%)</tspan></text></g><g transform="translate(42.563)"><text class="z" transform="translate(38 1)"><tspan x="0" y="0">Coinotron (1.1760%)</tspan></text></g></g></g></svg>