<svg xmlns="http://www.w3.org/2000/svg" viewBox="0 0 183.186 118.655"><defs><style>.a{fill:none;}.b,.g{fill:#bbbfc4;}.b,.c,.d{stroke:#fff;stroke-linejoin:round;}.c,.h{fill:#434348;}.d,.i{fill:#d8d8d8;}.e,.f{fill:#77838f;font-family:HelveticaNeue, Helvetica Neue;}.e{font-size:4.5px;}.f{font-size:3px;}</style></defs><g transform="translate(-3.564 -18.887)"><path class="a" d="M183.186,0V97.629H0Z" transform="translate(3.564 18.887)"/><path class="a" d="M183.186,150.742h0Z" transform="translate(3.564 -34.225)"/><g transform="translate(46.204 32.137)"><path class="b" d="M141.735,10.5a42.446,42.446,0,1,1-39.556,57.818l39.564-15.373Z" transform="translate(-97.401 -8.394)"/><path class="c" d="M91.365,69.844a42.446,42.446,0,0,1,33.64-57.361l5.939,42.028Z" transform="translate(-88.499 -11.012)"/><path class="d" d="M262,10.912a42.444,42.444,0,0,1,5.838-.412l.059,42.446Z" transform="translate(-223.77 -10.5)"/></g><text class="e" transform="translate(87.675 29.037)"><tspan x="-29.086" y="0">Breakdown By Supply Types</tspan></text><g transform="translate(12.829 120.793)"><rect class="a" width="164.299" height="16.749"/><g transform="translate(3.564 2.495)"><g transform="translate(0)"><text class="f" transform="translate(6.771 3)"><tspan x="0" y="0">Genesis (72009990.49948 ETH)</tspan></text><rect class="g" width="4.276" height="4.276" rx="2.138" transform="translate(0 0)"/><g transform="translate(94.665)"><text class="f" transform="translate(6.771 3)"><tspan x="0" y="0">Block Rewards (29865758.7188 ETH)</tspan></text><rect class="h" width="4.276" height="4.276" rx="2.138" transform="translate(0 0)"/></g><g transform="translate(0 6.415)"><text class="f" transform="translate(6.771 3)"><tspan x="0" y="0">Uncle Rewards (2314461.875 ETH)</tspan></text><rect class="i" width="4.276" height="4.276" rx="2.138" transform="translate(0 0)"/></g></g></g></g></g></svg>